<svg fill="#ff8cb9" width="185" height="44" viewBox="0 0 185 44" xmlns="http://www.w3.org/2000/svg">
<g clip-path="url(#clip0)">
<path d="M50.6699 1.21021H59.2479C61.3769 1.21021 62.9869 1.74194 64.0779 2.8054C64.9223 3.62903 65.3444 4.64984 65.3444 5.86757V5.91908C65.3444 6.43364 65.279 6.88838 65.1476 7.28275C65.0164 7.67766 64.841 8.03313 64.6219 8.35051C64.4033 8.66816 64.1491 8.94691 63.8602 9.18674C63.571 9.42712 63.2604 9.63316 62.9276 9.80433C63.9978 10.1992 64.8402 10.735 65.4544 11.4127C66.0683 12.0906 66.3757 13.0298 66.3757 14.2304V14.2817C66.3757 15.1053 66.2131 15.8256 65.8875 16.4434C65.5619 17.0608 65.0954 17.5756 64.4882 17.9875C63.8809 18.3992 63.1506 18.7078 62.2971 18.9138C61.4436 19.1195 60.4979 19.2224 59.46 19.2224H50.6699V1.21021ZM58.3903 8.49216C59.2896 8.49216 60.0036 8.34247 60.5321 8.04199C61.0608 7.74178 61.3251 7.257 61.3251 6.58817V6.53666C61.3251 5.93651 61.0958 5.47776 60.6377 5.16011C60.1792 4.84273 59.5181 4.68391 58.6547 4.68391H54.6358V8.49216H58.3903ZM59.4746 15.7489C60.3736 15.7489 61.0781 15.5906 61.5898 15.273C62.1009 14.9556 62.3567 14.4622 62.3567 13.7931V13.7419C62.3567 13.1415 62.1185 12.6656 61.6427 12.3136C61.1666 11.9624 60.4 11.7864 59.3423 11.7864H54.6358V15.7492H59.4746V15.7489Z"/>
<path d="M71.4844 1.21021H75.5566V19.2229H71.4844V1.21021Z"/>
<path d="M81.7246 1.21021H85.4787L94.1515 12.301V1.21021H98.1705V19.2229H94.707L85.7434 7.7721V19.2229H81.7246V1.21021Z"/>
<path d="M110.497 1.08228H114.252L122.184 19.2235H117.927L116.235 15.1837H108.408L106.716 19.2235H102.564L110.497 1.08228ZM114.781 11.6837L112.321 5.84267L109.863 11.6837H114.781Z"/>
<path d="M126.58 1.21021H130.334L139.007 12.301V1.21021H143.026V19.2229H139.563L130.599 7.7721V19.2229H126.58V1.21021Z"/>
<path d="M157.679 19.5316C156.322 19.5316 155.062 19.2912 153.898 18.8112C152.735 18.3314 151.73 17.6749 150.884 16.8426C150.038 16.0106 149.376 15.0285 148.9 13.8963C148.424 12.7639 148.188 11.5545 148.188 10.2679V10.2166C148.188 8.92993 148.424 7.72508 148.9 6.60125C149.376 5.47769 150.038 4.49121 150.884 3.6421C151.73 2.79299 152.743 2.12364 153.924 1.63483C155.104 1.14602 156.41 0.901611 157.838 0.901611C158.701 0.901611 159.49 0.97056 160.204 1.10738C160.917 1.24501 161.565 1.43334 162.147 1.67346C162.729 1.91384 163.267 2.20546 163.761 2.54832C164.253 2.89172 164.713 3.26892 165.136 3.68073L162.544 6.58837C161.821 5.95389 161.086 5.45596 160.336 5.09592C159.587 4.73588 158.745 4.5556 157.811 4.5556C157.036 4.5556 156.317 4.70155 155.657 4.99318C154.996 5.2848 154.427 5.68775 153.951 6.20231C153.475 6.71688 153.105 7.31327 152.84 7.99068C152.576 8.66863 152.444 9.39326 152.444 10.1651V10.2163C152.444 10.9882 152.576 11.7176 152.84 12.4034C153.105 13.0899 153.47 13.69 153.938 14.2046C154.404 14.7191 154.969 15.1269 155.63 15.4271C156.291 15.7277 157.018 15.8773 157.811 15.8773C158.869 15.8773 159.762 15.6887 160.494 15.3112C161.226 14.9344 161.954 14.4195 162.676 13.7673L165.268 16.3149C164.792 16.8125 164.297 17.2587 163.786 17.6528C163.275 18.0478 162.716 18.3863 162.107 18.6697C161.499 18.9524 160.834 19.1673 160.111 19.3127C159.389 19.4583 158.578 19.5316 157.679 19.5316Z"/>
<path d="M170.061 1.21021H183.994V4.73569H174.08V8.38969H182.806V11.9149H174.08V15.6977H184.128V19.2229H170.061V1.21021Z"/>
<path d="M12.4162 17.9334L8.66699 14.2846L20.3011 2.96216L31.9393 14.2887L28.1901 17.9374L20.3011 10.2601L12.4162 17.9334Z"/>
<path d="M20.3016 18.1858L24.1208 21.9026L20.3016 25.6195L16.4824 21.9026L20.3016 18.1858Z"/>
<path d="M20.3003 40.8429L8.66016 29.5151L12.4148 25.8711L20.3003 33.545L28.1893 25.8677L31.9407 29.5145L20.3003 40.8429Z"/>
<path d="M0.837891 21.902L4.58728 18.2532L8.33644 21.9019L4.58706 25.5507L0.837891 21.902Z"/>
<path d="M36.0141 18.2554L39.7633 21.9041L36.0139 25.5529L32.2646 21.9043L36.0141 18.2554Z"/>
<path d="M12.4162 17.9334L8.66699 14.2846L20.3011 2.96216L31.9393 14.2887L28.1901 17.9374L20.3011 10.2601L12.4162 17.9334Z"/>
<path d="M20.3016 18.1858L24.1208 21.9026L20.3016 25.6195L16.4824 21.9026L20.3016 18.1858Z"/>
<path d="M20.3003 40.8429L8.66016 29.5151L12.4148 25.8711L20.3003 33.545L28.1893 25.8677L31.9407 29.5145L20.3003 40.8429Z"/>
<path d="M0.837891 21.902L4.58728 18.2532L8.33644 21.9019L4.58706 25.5507L0.837891 21.902Z"/>
<path d="M36.0141 18.2554L39.7633 21.9041L36.0139 25.5529L32.2646 21.9043L36.0141 18.2554Z"/>
<path d="M58.4312 42.8212C56.5484 42.8212 54.9775 42.2091 53.7182 40.9848C52.4711 39.7488 51.8477 38.2303 51.8477 36.4293C51.8477 34.6401 52.4772 33.1274 53.7365 31.8914C54.9957 30.6554 56.5973 30.0374 58.5412 30.0374C59.6537 30.0374 60.589 30.214 61.347 30.5672C62.105 30.9085 62.8263 31.4029 63.5109 32.0503L61.8237 33.922C61.2736 33.4393 60.754 33.0921 60.265 32.8802C59.7882 32.6565 59.2075 32.5447 58.5229 32.5447C57.447 32.5447 56.5545 32.9213 55.8454 33.6748C55.1485 34.4163 54.8001 35.3346 54.8001 36.4293C54.8001 37.5122 55.1485 38.4305 55.8454 39.1838C56.5545 39.9372 57.447 40.3139 58.5229 40.3139C59.2075 40.3139 59.8004 40.1961 60.3017 39.9607C60.8029 39.7253 61.3347 39.3604 61.8972 38.8659L63.6942 40.7199C62.9974 41.438 62.2395 41.9677 61.4203 42.3091C60.6135 42.6505 59.6171 42.8212 58.4312 42.8212Z"/>
<path d="M65.9551 42.6092V30.2493H68.7792V35.1402H73.9874V30.2493H76.8115V42.6092H73.9874V37.6476H68.7792V42.6092H65.9551Z"/>
<path d="M78.7871 42.6096L84.2887 30.1614H86.8927L92.3943 42.6096H89.4418L88.2682 39.8375H82.8399L81.6663 42.6096H78.7871ZM83.8486 37.4361H87.2595L85.554 33.428L83.8486 37.4361Z"/>
<path d="M94.5039 42.6092V30.2493H97.3279V42.6092H94.5039Z"/>
<path d="M100.537 42.6092V30.2493H103.141L109.156 37.8594V30.2493H111.944V42.6092H109.541L103.324 34.7518V42.6092H100.537Z"/>
</g>
<defs>
<clipPath id="clip0">
<rect width="185" height="43" transform="translate(0 0.901611)"/>
</clipPath>
</defs>
</svg>
