<?xml version="1.0" standalone="no"?>
<!DOCTYPE svg PUBLIC "-//W3C//DTD SVG 20010904//EN"
 "http://www.w3.org/TR/2001/REC-SVG-20010904/DTD/svg10.dtd">
<svg version="1.0" xmlns="http://www.w3.org/2000/svg"
 width="80.000000pt" height="35.000000pt" viewBox="0 0 360.000000 150.000000"
 preserveAspectRatio="xMidYMid meet">
<metadata>
Created by potrace 1.10, written by Peter Selinger 2001-2011
</metadata>
<g transform="translate(0.000000,150.000000) scale(0.100000,-0.100000)"
fill="#ff8cb9" stroke="none">
<path d="M720 1485 c0 -9 -12 -20 -27 -25 -29 -11 -32 -12 -123 -53 -31 -14
-68 -29 -83 -32 -15 -4 -29 -10 -32 -14 -8 -14 26 -51 47 -51 24 0 105 -36
114 -51 9 -16 84 -11 90 6 8 20 51 19 62 -1 11 -21 68 -21 90 -1 10 10 25 17
33 17 8 0 23 7 33 15 11 8 30 15 42 15 23 0 54 24 54 41 0 5 -12 14 -27 20
-91 37 -139 57 -175 76 -14 7 -34 13 -43 13 -9 0 -19 9 -22 20 -6 23 -33 27
-33 5z"/>
<path d="M255 1255 c-41 -24 -99 -53 -147 -73 l-28 -12 0 -224 c0 -123 -2
-230 -5 -238 -3 -7 -1 -19 4 -27 8 -12 14 -13 33 -3 13 7 59 32 103 55 l80 42
-1 45 c-1 25 -2 93 -3 151 l-3 107 -29 6 c-32 6 -73 42 -64 56 4 6 28 10 54
10 56 0 82 -20 61 -45 -10 -13 -8 -19 15 -38 32 -26 100 -66 172 -102 28 -14
55 -30 58 -35 8 -13 62 -13 69 -1 4 5 27 19 54 31 26 12 67 30 90 41 37 16 42
22 32 34 -7 8 -19 15 -27 15 -24 0 -449 205 -459 222 -8 12 -15 10 -59 -17z"/>
<path d="M1117 1249 c-26 -16 -70 -36 -97 -45 -28 -9 -53 -21 -57 -27 -9 -14
34 -47 61 -47 12 0 31 -7 42 -15 10 -8 35 -15 55 -15 24 0 39 -5 43 -16 11
-29 6 -43 -16 -49 -39 -11 -181 -73 -218 -96 -8 -5 -21 -11 -27 -14 -7 -3 -19
-7 -25 -10 -7 -3 -21 -9 -30 -15 -10 -5 -26 -15 -35 -20 -10 -6 -25 -13 -33
-16 -8 -3 -22 -10 -30 -15 -8 -5 -22 -12 -30 -15 -8 -3 -22 -10 -30 -15 -8 -5
-22 -12 -30 -15 -8 -3 -22 -10 -30 -15 -8 -5 -22 -12 -30 -15 -8 -3 -22 -10
-30 -15 -8 -5 -22 -12 -30 -15 -8 -3 -22 -10 -30 -15 -8 -5 -22 -12 -30 -15
-27 -11 -265 -125 -280 -135 -8 -5 -22 -12 -30 -15 -8 -3 -32 -13 -53 -22
l-37 -17 2 -109 c2 -85 6 -111 18 -117 8 -4 49 -24 90 -44 41 -19 83 -41 93
-48 13 -9 21 -9 35 0 28 20 134 70 164 77 29 7 36 27 16 43 -18 14 -107 44
-148 50 -61 10 -68 47 -12 69 60 25 126 55 142 65 8 5 22 12 30 15 22 8 322
154 340 165 8 5 21 11 28 14 6 3 18 7 25 10 6 3 20 9 30 15 9 5 25 15 35 20 9
6 24 13 32 16 8 3 22 10 30 15 8 5 21 11 28 14 6 3 18 7 25 10 6 3 20 9 30 15
9 5 25 15 35 20 9 6 24 13 32 16 31 13 146 67 180 84 l35 19 0 98 c0 99 -10
133 -41 133 -16 0 -152 69 -160 81 -8 14 -26 10 -77 -22z m123 -129 c10 -5 29
-30 43 -55 l26 -45 -25 0 c-59 0 -107 51 -90 95 6 17 20 19 46 5z m-969 -701
c22 -26 22 -25 9 -49 -9 -16 -15 -18 -38 -9 -26 10 -92 72 -92 88 0 17 14 19
57 6 24 -7 53 -23 64 -36z"/>
<path d="M1767 1003 c-4 -3 -7 -128 -7 -276 l0 -270 138 5 c114 4 144 8 177
26 41 21 105 75 105 88 0 4 7 16 16 26 13 14 17 40 17 125 0 91 -3 114 -21
148 -51 95 -140 134 -308 135 -61 0 -114 -3 -117 -7z m231 -111 c38 -11 89
-69 100 -115 29 -113 -59 -223 -171 -215 l-41 3 -1 163 c0 90 2 166 4 168 6 6
83 3 109 -4z"/>
<path d="M2274 736 l0 -275 165 -3 c91 -2 195 -1 230 2 55 5 66 9 85 35 25 35
42 62 55 92 6 12 19 27 30 32 17 10 23 5 48 -39 15 -27 31 -50 36 -50 4 0 7
-6 7 -13 0 -27 44 -55 95 -59 28 -3 57 -8 67 -12 24 -11 36 33 14 50 -10 6
-49 54 -87 105 -38 52 -76 97 -84 102 -25 13 -17 44 20 80 19 19 35 37 35 41
0 4 19 33 43 64 24 31 47 65 50 75 12 32 32 13 35 -32 l3 -43 50 4 c29 3 52 1
56 -5 4 -6 5 -105 4 -219 l-3 -209 74 3 73 3 -3 150 c-1 83 -5 179 -9 213 l-6
64 69 -4 c79 -4 91 9 51 53 -14 14 -30 35 -36 47 -12 22 -15 22 -239 22 -223
0 -228 0 -247 -22 -20 -23 -38 -50 -52 -78 -4 -8 -13 -21 -20 -28 -7 -7 -13
-20 -13 -28 0 -8 -5 -14 -11 -14 -19 0 -49 21 -49 34 0 7 -13 32 -30 54 -16
23 -30 46 -30 52 0 24 -49 30 -257 30 l-219 0 0 -274z m356 201 c0 -5 28 -44
63 -89 98 -126 96 -121 61 -154 -38 -37 -94 -109 -94 -122 0 -5 -7 -12 -15
-16 -8 -3 -15 -14 -15 -24 0 -10 -11 -24 -25 -30 -28 -13 -31 -9 -37 38 -3 25
-4 25 -90 21 l-88 -3 0 67 0 68 71 -7 c80 -8 89 -3 89 51 0 61 -4 64 -86 57
l-74 -7 0 58 0 58 90 -6 90 -7 0 38 c0 21 3 41 6 45 7 7 53 -24 54 -36z"/>
<path d="M1339 792 c-13 -10 -31 -22 -39 -25 -8 -4 -22 -11 -30 -16 -8 -5 -32
-17 -53 -27 -21 -11 -42 -23 -46 -29 -8 -10 1 -147 14 -236 7 -42 5 -47 -15
-52 -14 -4 -27 1 -38 14 -9 10 -22 19 -29 19 -7 0 -13 4 -13 8 0 4 -26 20 -57
36 -74 35 -102 51 -116 65 -13 13 -54 15 -61 2 -7 -11 -71 -42 -139 -66 -60
-22 -59 -43 3 -65 48 -17 155 -65 180 -81 8 -5 22 -12 30 -15 8 -3 22 -10 30
-15 8 -5 22 -12 30 -15 8 -3 22 -10 30 -15 8 -5 21 -11 28 -14 32 -13 39 -17
67 -35 57 -37 53 -37 110 0 17 11 37 22 45 25 8 3 28 13 43 21 16 7 34 14 42
14 33 0 36 27 37 272 1 264 0 270 -53 230z m-79 -378 c0 -8 -13 -32 -29 -54
-25 -35 -30 -38 -41 -25 -11 13 -10 20 0 40 7 14 19 25 26 25 7 0 16 9 19 20
7 22 25 18 25 -6z"/>
<path d="M616 221 c-8 -12 -83 -48 -118 -56 -15 -4 -33 -14 -40 -22 -10 -12
-9 -18 7 -29 10 -8 25 -14 32 -14 7 0 21 -4 31 -9 22 -11 77 -35 127 -56 22
-9 48 -21 58 -26 14 -8 29 -6 55 6 21 9 48 21 62 27 45 19 95 40 110 48 9 4
30 11 48 15 49 10 39 43 -18 60 -37 10 -109 45 -116 56 -9 15 -81 11 -88 -6
-3 -8 -16 -15 -30 -15 -13 0 -26 7 -30 15 -6 17 -81 22 -90 6z"/>
</g>
</svg>
