<svg width="122" height="38" viewBox="0 0 122 38" fill="#ff8cb9" xmlns="http://www.w3.org/2000/svg">
<path fill-rule="evenodd" clip-rule="evenodd" d="M10.339 24.7916C11.274 24.7916 12.138 24.6216 12.957 24.3016C12.964 24.3176 14.631 26.9076 14.655 26.9256C13.146 27.7366 11.569 28.0936 9.845 28.0936C4.72 28.0936 1 24.7166 1 19.3256C1 13.8956 4.91 10.5186 9.845 10.5186C11.602 10.5186 12.987 10.8996 14.382 11.6456C14.228 11.9016 12.792 14.3396 12.787 14.3496C11.9596 14.0204 11.0765 13.854 10.186 13.8596C7.149 13.8596 4.796 15.7956 4.796 19.3256C4.796 22.6656 7.073 24.7916 10.339 24.7916ZM23.265 10.5186C28.314 10.5186 31.958 14.0876 31.958 19.3256C31.958 24.5256 28.314 28.0936 23.265 28.0936C18.255 28.0936 14.611 24.5266 14.611 19.3256C14.611 14.0876 18.255 10.5186 23.265 10.5186ZM23.265 13.7456C20.457 13.7456 18.406 15.9096 18.406 19.3256C18.406 22.7046 20.456 24.8676 23.266 24.8676C26.151 24.8676 28.163 22.7046 28.163 19.3256C28.163 15.9096 26.151 13.7456 23.265 13.7456ZM34.35 27.7146V10.8976H38.107V27.7146H34.35ZM33.856 5.73461C33.856 4.44461 34.958 3.42061 36.21 3.42061C37.463 3.42061 38.563 4.44461 38.563 5.73561C38.563 7.06461 37.463 8.12761 36.21 8.12761C34.958 8.12761 33.856 7.06361 33.856 5.73461ZM41.386 11.9616C43.739 11.0506 46.626 10.5186 49.092 10.5186C53.382 10.5186 56.115 12.1506 56.115 16.8956V27.7146H52.395V17.2376C52.395 14.8086 50.877 13.9346 48.788 13.9346C47.459 13.9346 46.132 14.1246 45.144 14.4286V27.7146H41.386V11.9616ZM59.262 1.90161H63.019V11.3546C63.816 10.9366 65.372 10.5186 66.852 10.5186C71.712 10.5186 75.355 13.6306 75.355 19.0216C75.355 24.4496 71.75 28.0936 65.525 28.0936C63.3898 28.0874 61.2715 27.7153 59.262 26.9936V1.90161ZM63.019 24.5266C63.74 24.7536 64.689 24.8666 65.638 24.8666C69.092 24.8666 71.56 22.9696 71.56 19.0966C71.56 15.8326 69.245 13.8966 66.398 13.8966C64.918 13.8966 63.778 14.2766 63.018 14.6946L63.019 24.5266ZM86.211 16.4396C86.211 14.6176 84.844 13.7836 82.984 13.7836C81.048 13.7836 79.53 14.3526 78.126 15.1496V11.8846C79.606 11.0506 81.503 10.5186 83.592 10.5186C87.273 10.5186 89.892 12.0366 89.892 16.2496V27.3726C88.298 27.7896 86.022 28.0566 84.124 28.0566C79.758 28.0566 76.569 26.7276 76.569 22.9316C76.569 19.5156 79.491 17.8456 84.35 17.8456H86.21L86.211 16.4396ZM86.211 20.3496H84.617C81.997 20.3496 80.289 21.1096 80.289 22.8176C80.289 24.5636 81.884 25.2466 84.161 25.2466C84.731 25.2466 85.528 25.1706 86.211 25.0566V20.3496ZM92.625 23.1596C94.182 24.3356 96.041 25.0566 97.749 25.0566C99.42 25.0566 100.521 24.4876 100.521 23.1596C100.521 21.7916 99.534 21.2986 97.371 20.7296C93.878 19.9326 92.397 18.5286 92.397 15.6056C92.397 12.1886 94.979 10.5186 98.395 10.5186C100.293 10.5186 101.811 10.9366 103.215 11.8086V15.2636C101.735 14.2016 100.293 13.5556 98.509 13.5556C96.877 13.5556 96.004 14.3526 96.004 15.4536C96.004 16.5536 96.724 17.1236 98.661 17.6536C102.496 18.4896 104.165 19.9336 104.165 22.9696C104.165 26.4996 101.47 28.0936 97.826 28.0936C95.852 28.0936 93.878 27.5636 92.626 26.7276L92.625 23.1596ZM109.309 20.1606V20.2366C109.537 23.2346 112.117 24.8666 114.736 24.8666C117.052 24.8666 118.723 24.3356 120.392 23.2346V26.5386C118.874 27.6006 116.634 28.0936 114.472 28.0936C109.233 28.0936 105.665 24.7536 105.665 19.4396C105.665 14.0876 109.156 10.5196 113.788 10.5196C118.684 10.5196 121 13.6696 121 18.2616V20.1616L109.309 20.1606ZM117.469 17.7306C117.394 15.1106 116.104 13.6696 113.674 13.6696C111.51 13.6696 109.916 15.1886 109.423 17.7316L117.469 17.7306Z"/>
</svg>
