<svg width="265" height="46" viewBox="0 0 265 46" fill="#ff8cb9" xmlns="http://www.w3.org/2000/svg">
<g clip-path="url(#clip0)">
<path fill-rule="evenodd" clip-rule="evenodd" d="M38.945 27.7918C38.1522 28.2879 37.2186 28.3494 36.509 27.9532C35.6076 27.4494 35.1119 26.2695 35.1119 24.6287V19.7193C35.1119 17.3486 34.165 15.6616 32.5817 15.2061C29.8984 14.4323 27.8804 17.6822 27.122 18.9027L22.3897 26.4978V17.2146C22.3365 15.0788 21.6358 13.8012 20.3052 13.416C19.4248 13.1614 18.1076 13.2634 16.8281 15.2017L6.22584 32.0537C4.80645 29.3864 4.06653 26.4163 4.07036 23.4016C4.07036 13.2503 12.2887 4.99222 22.3897 4.99222C32.4908 4.99222 40.708 13.2503 40.708 23.4016C40.708 23.4192 40.7124 23.4345 40.7135 23.451C40.7135 23.4686 40.7102 23.4839 40.7113 23.5015C40.8067 25.4672 40.1636 27.0312 38.945 27.7929V27.7918ZM44.7783 23.4027V23.4016V23.3511L44.7772 23.3006C44.7207 10.9377 34.7006 0.901611 22.3886 0.901611C10.0445 0.901611 0 10.9948 0 23.4016C0 35.8073 10.0445 45.9016 22.3897 45.9016C28.0545 45.9016 33.461 43.7701 37.6111 39.9012C38.4361 39.1329 38.4849 37.8389 37.7198 37.0114C37.5397 36.8148 37.3219 36.6558 37.0789 36.5436C36.836 36.4315 36.5729 36.3685 36.305 36.3582C36.0371 36.348 35.7699 36.3908 35.519 36.4841C35.268 36.5774 35.0384 36.7193 34.8436 36.9016C31.4796 40.0549 27.0226 41.8118 22.3897 41.811C16.9811 41.811 12.1146 39.4414 8.7583 35.6833L18.3194 20.4865V27.4922C18.3194 30.8573 19.6377 31.945 20.7432 32.2633C21.8497 32.5816 23.5406 32.3643 25.3158 29.5106L30.5748 21.0715C30.7433 20.7993 30.8986 20.5644 31.0405 20.3614V24.6287C31.0405 27.7743 32.3134 30.2899 34.532 31.529C36.5323 32.6464 39.047 32.5454 41.0961 31.2656C43.5797 29.7126 44.918 26.8512 44.7783 23.4027ZM75.9497 15.7154C76.4874 16.0392 76.9531 16.7592 76.9531 17.4078C76.9531 18.4516 76.0572 19.3154 75.0538 19.3154C74.8032 19.3154 74.5526 19.244 74.3375 19.1716C73.1544 18.3078 71.6498 17.7316 70.0731 17.7316C66.3476 17.7316 63.7674 20.7554 63.7674 24.4992C63.7674 28.244 66.3476 31.2316 70.0731 31.2316C71.9359 31.2316 73.5846 30.4754 74.8387 29.324C75.1626 29.0935 75.5507 28.9678 75.9497 28.964C76.9531 28.964 77.7415 29.7554 77.7415 30.764C77.7415 31.4116 77.3467 31.9878 76.8456 32.3116C75.0538 33.824 72.6178 34.8316 70.1097 34.8316C64.3772 34.8316 59.7181 30.1516 59.7181 24.3916C59.7181 18.6316 64.3761 13.9516 70.1097 13.9516C72.2596 13.9516 74.3009 14.5992 75.9497 15.7154ZM86.4321 20.0716C90.3373 20.0716 93.6337 23.3478 93.6337 27.3792C93.6337 31.4116 90.3373 34.8316 86.4321 34.8316C82.3474 34.8316 78.9434 31.4116 78.9434 27.3792C78.9434 23.3478 82.3474 20.0716 86.4321 20.0716ZM86.3955 31.2316C88.1164 31.2316 89.5844 29.6116 89.5844 27.4154C89.5844 25.2203 88.1164 23.8516 86.3955 23.8516C84.5328 23.8516 82.9916 25.184 82.9916 27.4154C82.9916 29.6116 84.5328 31.2316 86.3955 31.2316ZM96.0897 32.5992V22.304C96.0897 21.1878 96.9856 20.2516 98.0966 20.2516C99.2076 20.2516 100.139 21.1878 100.139 22.304V32.5992C100.139 33.7154 99.2076 34.6516 98.0966 34.6516C96.9856 34.6516 96.0897 33.7154 96.0897 32.5992ZM95.7681 16.364C95.7681 15.0316 96.8059 13.9516 98.0966 13.9516C99.4216 13.9516 100.497 15.0316 100.497 16.364C100.497 17.6592 99.4216 18.704 98.0966 18.704C96.8059 18.704 95.7681 17.6592 95.7681 16.364ZM107.898 27.0192V32.5992C107.898 33.7154 106.967 34.6516 105.855 34.6516C104.745 34.6516 103.848 33.7154 103.848 32.5992V21.8354C103.848 20.9716 104.565 20.2516 105.426 20.2516C106.285 20.2516 106.967 20.9716 106.967 21.8354C108.615 20.324 110.047 20.0716 111.409 20.0716C115.458 20.0716 117.25 23.0954 117.25 26.5154V32.5992C117.25 33.7154 116.318 34.6516 115.207 34.6516C114.096 34.6516 113.2 33.7154 113.2 32.5992V27.0192C113.2 25.2554 112.985 23.7792 110.442 23.7792C108.65 23.7792 107.897 25.2554 107.897 27.0192H107.898ZM130.419 29.144C129.953 29.144 129.632 28.9278 129.38 28.6392L124.65 23.564V32.5992C124.65 33.7154 123.718 34.6516 122.607 34.6516C121.496 34.6516 120.6 33.7154 120.6 32.5992V14.7089C120.658 14.5582 120.762 14.4288 120.897 14.3385C121.032 14.2481 121.192 14.2012 121.354 14.204C121.711 14.204 121.998 14.4927 122.214 14.7089L129.738 23.0965C129.953 23.3489 130.239 23.4927 130.383 23.4927C130.526 23.4927 130.812 23.3489 131.028 23.0976L138.553 14.7089C138.768 14.4927 139.054 14.204 139.412 14.204C139.77 14.204 140.057 14.4203 140.165 14.7089V32.5992C140.165 33.7154 139.269 34.6516 138.158 34.6516C137.047 34.6516 136.116 33.7154 136.116 32.5992V23.564L131.387 28.6392C131.135 28.9278 130.812 29.144 130.419 29.144ZM149.895 31.2316C151.722 31.2316 153.262 29.6116 153.262 27.4154C153.262 25.2203 151.686 23.7792 149.895 23.7792C148.103 23.7792 146.669 25.2554 146.669 27.4154C146.669 29.5392 148.103 31.2316 149.895 31.2316ZM154.194 33.0678L154.121 32.5992C153.334 34.1467 150.825 34.8316 149.213 34.8316C145.414 34.8316 142.62 31.4116 142.62 27.3792C142.62 23.3478 145.486 20.0716 149.428 20.0716C150.109 20.0716 152.366 20.2516 154.121 22.304L154.193 21.8354C154.193 20.9716 154.874 20.2516 155.735 20.2516C156.594 20.2516 157.31 20.9716 157.31 21.8354V33.0678C157.31 33.9316 156.594 34.6516 155.733 34.6516C154.874 34.6516 154.192 33.9316 154.192 33.0678H154.194ZM168.546 23.7792H168.116C165.572 23.924 165.071 25.364 165.071 27.0192V32.5992C165.071 33.7154 164.139 34.6516 163.028 34.6516C161.917 34.6516 161.021 33.7154 161.021 32.5992V21.8354C161.021 20.9716 161.738 20.2516 162.598 20.2516C163.458 20.2516 164.139 20.9716 164.139 21.8354C165.644 20.4316 166.862 20.144 168.116 20.0716H168.51C169.478 20.0716 170.373 20.8992 170.373 21.944C170.373 22.9154 169.513 23.7792 168.546 23.7792ZM184.152 31.664C184.331 31.9516 184.439 32.2754 184.439 32.6354C184.439 33.6792 183.471 34.6516 182.432 34.6516C181.716 34.6516 181.106 34.1116 180.64 33.5354L175.983 28.1716V32.5992C175.983 33.7154 175.051 34.6516 173.94 34.6516C172.829 34.6516 171.933 33.7154 171.933 32.5992V16.2565C171.933 15.1392 172.829 14.204 173.94 14.204C175.051 14.204 175.982 15.1392 175.982 16.2565V26.444L180.64 21.3316C181.106 20.7916 181.679 20.2516 182.396 20.2516C183.4 20.2516 184.331 21.1878 184.331 22.2316C184.331 22.5554 184.259 22.8792 184.08 23.1678L180.39 27.1629L184.152 31.6629V31.664ZM192.091 23.8516C190.98 23.8516 189.188 24.4278 189.188 26.1192H195.028C195.028 24.3916 193.165 23.8516 192.089 23.8516H192.091ZM197.393 28.6754H189.188C189.188 31.0878 191.516 31.4478 192.555 31.4478C193.309 31.4478 194.384 31.304 195.207 30.9429C195.458 30.764 195.888 30.6192 196.246 30.6192C197.142 30.6192 197.894 31.3765 197.894 32.2765C197.894 32.8878 197.5 33.4278 196.999 33.7154C195.745 34.6154 194.132 34.8316 192.592 34.8316C188.507 34.8316 185.103 32.6365 185.103 27.5592C185.103 23.564 187.181 20.0716 192.019 20.0716C195.924 20.0716 198.897 22.5916 198.97 27.0916C198.97 27.9554 198.253 28.6754 197.393 28.6754ZM208.664 34.8316H207.553C204.47 34.8316 202.68 33.4992 202.68 28.7116V23.7792H201.641C200.673 23.7792 199.813 22.9154 199.813 21.944C199.813 20.8992 200.673 20.0716 201.641 20.0716H202.68V16.2554C202.68 15.1392 203.575 14.2029 204.686 14.2029C205.796 14.2029 206.729 15.1392 206.729 16.2554V20.0716H208.412C209.38 20.0716 210.24 20.8992 210.24 21.944C210.24 22.9154 209.38 23.7792 208.412 23.7792H206.729V27.9192C206.729 30.6554 206.872 31.2316 208.09 31.2316H208.664C209.63 31.2316 210.454 32.024 210.454 33.0316C210.454 34.004 209.63 34.8316 208.664 34.8316ZM228.282 15.7154C228.819 16.0392 229.286 16.7592 229.286 17.4078C229.286 18.4516 228.39 19.3154 227.387 19.3154C227.136 19.3154 226.884 19.244 226.67 19.1716C225.487 18.3078 223.983 17.7316 222.406 17.7316C218.68 17.7316 216.099 20.7554 216.099 24.4992C216.099 28.244 218.679 31.2316 222.406 31.2316C224.269 31.2316 225.917 30.4754 227.171 29.324C227.495 29.0935 227.884 28.9678 228.282 28.964C229.286 28.964 230.073 29.7554 230.073 30.764C230.073 31.4116 229.68 31.9878 229.178 32.3116C227.387 33.824 224.949 34.8316 222.441 34.8316C216.709 34.8316 212.051 30.1516 212.051 24.3916C212.051 18.6316 216.708 13.9516 222.441 13.9516C224.592 13.9516 226.634 14.5992 228.282 15.7154ZM238.55 31.2316C240.377 31.2316 241.917 29.6116 241.917 27.4154C241.917 25.2203 240.341 23.7792 238.549 23.7792C236.758 23.7792 235.324 25.2554 235.324 27.4154C235.324 29.5392 236.758 31.2316 238.549 31.2316H238.55ZM242.849 33.0678L242.778 32.5992C241.989 34.1467 239.481 34.8316 237.868 34.8316C234.07 34.8316 231.275 31.4116 231.275 27.3792C231.275 23.3478 234.142 20.0716 238.083 20.0716C238.764 20.0716 241.021 20.2516 242.778 22.304L242.849 21.8354C242.849 20.9716 243.529 20.2516 244.39 20.2516C245.249 20.2516 245.967 20.9716 245.967 21.8354V33.0678C245.967 33.9316 245.249 34.6516 244.39 34.6516C243.529 34.6516 242.849 33.9316 242.849 33.0678ZM257.093 31.2316C258.885 31.2316 260.318 29.5392 260.318 27.4154C260.318 25.2554 258.885 23.7792 257.093 23.7792C255.301 23.7792 253.725 25.2192 253.725 27.4154C253.725 29.6116 255.266 31.2316 257.093 31.2316ZM253.725 33.644V38.7554C253.725 39.8716 252.793 40.8078 251.682 40.8078C250.572 40.8078 249.675 39.8716 249.675 38.7554V21.8354C249.675 20.9716 250.393 20.2516 251.253 20.2516C252.113 20.2516 252.794 20.9716 252.794 21.9792C254.298 20.4316 256.162 20.0716 257.559 20.0716C261.501 20.0716 264.367 23.3478 264.367 27.3792C264.367 31.4116 261.573 34.8316 257.774 34.8316C256.592 34.8316 254.836 34.4716 253.725 33.644Z"/>
</g>
<defs>
<clipPath id="clip0">
<rect width="265" height="45" transform="translate(0 0.901611)"/>
</clipPath>
</defs>
</svg>
