<svg width="193" height="54" viewBox="0 0 193 54" fill="#ff8cb9" xmlns="http://www.w3.org/2000/svg">
<g clip-path="url(#clip0)">
<path d="M80.6447 24.2156C80.0231 20.2859 76.9776 17.989 73.1329 17.989C68.4269 17.989 64.9551 21.5509 64.9551 27.4276C64.9551 33.3043 68.4091 36.8662 73.1329 36.8662C77.1285 36.8662 80.0498 34.3361 80.6447 30.7024L77.8744 30.6934C77.4038 33.0441 75.4503 34.3361 73.1506 34.3361C70.034 34.3361 67.681 31.9226 67.681 27.4276C67.681 22.9685 70.0251 20.5191 73.1595 20.5191C75.477 20.5191 77.4215 21.838 77.8744 24.2156H80.6447Z"/>
<path d="M89.46 36.8929C93.3047 36.8929 95.8175 34.0488 95.8175 29.787C95.8175 25.4984 93.3047 22.6543 89.46 22.6543C85.6153 22.6543 83.1025 25.4984 83.1025 29.787C83.1025 34.0488 85.6153 36.8929 89.46 36.8929ZM89.4689 34.6409C86.9561 34.6409 85.784 32.4248 85.784 29.7781C85.784 27.1403 86.9561 24.8973 89.4689 24.8973C91.9639 24.8973 93.136 27.1403 93.136 29.7781C93.136 32.4248 91.9639 34.6409 89.4689 34.6409Z"/>
<path d="M98.7808 36.6149H101.436V22.8338H98.7808V36.6149ZM100.121 20.7075C101.036 20.7075 101.8 19.9897 101.8 19.1104C101.8 18.2312 101.036 17.5044 100.121 17.5044C99.1981 17.5044 98.4434 18.2312 98.4434 19.1104C98.4434 19.9897 99.1981 20.7075 100.121 20.7075Z"/>
<path d="M107.662 28.4323C107.662 26.2341 108.994 24.978 110.841 24.978C112.643 24.978 113.735 26.1713 113.735 28.1721V36.6148H116.39V27.8491C116.39 24.4397 114.535 22.6543 111.746 22.6543C109.695 22.6543 108.355 23.6143 107.724 25.0767H107.555V22.8337H105.007V36.6148H107.662V28.4323Z"/>
<path d="M132.471 24.0451H135.285C134.673 20.4653 131.645 17.989 127.72 17.989C123.014 17.989 119.578 21.5689 119.578 27.4366C119.578 33.2505 122.917 36.8662 127.844 36.8662C132.257 36.8662 135.41 33.9413 135.41 29.3028V27.2123H128.262V29.5001H132.755C132.692 32.4609 130.757 34.3361 127.844 34.3361C124.639 34.3361 122.304 31.8867 122.304 27.4186C122.304 22.9685 124.657 20.5191 127.738 20.5191C130.153 20.5191 131.787 21.8649 132.471 24.0451Z"/>
<path d="M144.557 36.8929C147.532 36.8929 149.636 35.4125 150.24 33.1695L147.727 32.7119C147.248 34.0129 146.093 34.6768 144.584 34.6768C142.311 34.6768 140.784 33.1874 140.713 30.5317H150.409V29.5807C150.409 24.6012 147.461 22.6543 144.371 22.6543C140.571 22.6543 138.067 25.5792 138.067 29.814C138.067 34.0936 140.535 36.8929 144.557 36.8929ZM140.722 28.522C140.828 26.5661 142.231 24.8704 144.389 24.8704C146.449 24.8704 147.798 26.4136 147.807 28.522H140.722Z"/>
<path d="M159.099 36.8929C162.322 36.8929 164.409 34.937 164.702 32.2544H162.118C161.781 33.7437 160.635 34.623 159.117 34.623C156.871 34.623 155.423 32.7299 155.423 29.7242C155.423 26.7724 156.897 24.9152 159.117 24.9152C160.804 24.9152 161.834 25.9919 162.118 27.2839H164.702C164.418 24.5025 162.171 22.6543 159.073 22.6543C155.228 22.6543 152.742 25.5792 152.742 29.787C152.742 33.9411 155.139 36.8929 159.099 36.8929Z"/>
<path d="M167.541 36.6148H170.196V31.725L171.519 30.3882L176.154 36.6148H179.413L173.517 28.7463L179.04 22.8337H175.861L170.427 28.6655H170.196V18.24H167.541V36.6148Z"/>
<path d="M186.642 36.8929C190.487 36.8929 193 34.0488 193 29.787C193 25.4984 190.487 22.6543 186.642 22.6543C182.798 22.6543 180.285 25.4984 180.285 29.787C180.285 34.0488 182.798 36.8929 186.642 36.8929ZM186.651 34.6409C184.139 34.6409 182.967 32.4248 182.967 29.7781C182.967 27.1403 184.139 24.8973 186.651 24.8973C189.146 24.8973 190.318 27.1403 190.318 29.7781C190.318 32.4248 189.146 34.6409 186.651 34.6409Z"/>
<path fill-rule="evenodd" clip-rule="evenodd" d="M26.2258 53.9016C40.71 53.9016 52.4516 42.0372 52.4516 27.4016C52.4516 12.766 40.71 0.901611 26.2258 0.901611C11.7417 0.901611 0 12.766 0 27.4016C0 42.0372 11.7417 53.9016 26.2258 53.9016ZM27.6358 21.4177C27.6358 24.1455 25.4474 26.3568 22.7478 26.3568C20.0483 26.3568 17.8599 24.1455 17.8599 21.4177C17.8599 18.69 20.0483 16.4787 22.7478 16.4787C25.4474 16.4787 27.6358 18.69 27.6358 21.4177ZM22.7478 24.6471C24.5129 24.6471 25.9438 23.2012 25.9438 21.4177C25.9438 19.6342 24.5129 18.1883 22.7478 18.1883C20.9828 18.1883 19.5519 19.6342 19.5519 21.4177C19.5519 23.2012 20.9828 24.6471 22.7478 24.6471ZM39.6677 27.3066C40.2907 27.3066 40.7957 26.7963 40.7957 26.1668C40.7957 25.5373 40.2907 25.027 39.6677 25.027C39.0447 25.027 38.5397 25.5373 38.5397 26.1668C38.5397 26.7963 39.0447 27.3066 39.6677 27.3066ZM44.1797 28.4464C40.2944 30.5677 31.3582 34.0693 26.6958 31.1059C30.1738 35.4751 40.4439 31.6948 43.65 29.1113C42.8552 30.0414 41.6591 31.2312 40.3528 32.5305C37.8927 34.9776 35.042 37.8132 33.7458 40.0342C33.4503 40.5404 33.1689 40.9991 32.9039 41.431C31.23 44.1596 30.2123 45.8184 30.4558 51.632C41.8852 49.6087 50.5716 39.5302 50.5716 27.4016C50.5716 13.8152 39.6716 2.80125 26.2258 2.80125C12.7801 2.80125 1.87999 13.8152 1.87999 27.4016C1.87999 32.5455 3.44244 37.3207 6.11395 41.269C6.61395 40.4775 7.76434 38.1726 8.36594 35.2851C8.71957 33.5878 8.86533 31.3864 9.00849 29.2242C9.16977 26.7884 9.32776 24.4023 9.77593 22.8425C10.6219 19.898 13.1599 16.8586 16.0739 15.6238C18.9879 14.3891 21.2438 13.7242 22.9358 13.7242C24.2894 13.7242 25.6931 14.1674 26.2258 14.3891C27.2598 14.1358 29.6286 13.7812 30.8318 14.3891C32.3358 15.1489 32.9938 16.1937 32.9938 16.5736C33.9651 16.9852 36.0957 17.8654 36.8477 18.0934C37.7877 18.3783 43.4277 20.2779 44.4617 21.7027C45.4957 23.1274 45.9657 25.9769 44.1797 28.4464Z"/>
</g>
<defs>
<clipPath id="clip0">
<rect width="193" height="53" transform="translate(0 0.901611)"/>
</clipPath>
</defs>
</svg>
