<?xml version="1.0" encoding="utf-8"?>
<!-- Generator: Adobe Illustrator 26.0.2, SVG Export Plug-In . SVG Version: 6.00 Build 0)  -->
<svg version="1.1" id="Layer_1" xmlns="http://www.w3.org/2000/svg" xmlns:xlink="http://www.w3.org/1999/xlink" x="0px" y="0px"
	 viewBox="0 0 1900 1080" style="enable-background:new 0 0 1900 1080;" xml:space="preserve">
<style type="text/css">
	.st0{fill:none;stroke:#ff8cb9;stroke-width:11;stroke-miterlimit:10;}
	.st1{fill:#ff8cb9;}
	.st2{fill:none;stroke:#ff8cb9;stroke-width:2;stroke-miterlimit:10;}
	.st3{fill:#FFFFFF;}
	.st4{font-family:'Poppins-Bold';}
	.st5{font-size:28px;}
	.st6{fill:none;}
	.st7{font-family:'Poppins-Regular';}
	.st8{font-size:17px;}
</style>
<line class="st0" x1="76.48" y1="230.54" x2="1822.04" y2="230.54"/>
<circle class="st1" cx="54.77" cy="230.54" r="23.59"/>
<circle class="st1" cx="1844.13" cy="230.54" r="23.59"/>
<path class="st2" d="M1002.92,1044.66h-385c-13.81,0-25-11.19-25-25V307.79c0-13.81,11.19-25,25-25h385c13.81,0,25,11.19,25,25
	v711.87C1027.92,1033.46,1016.73,1044.66,1002.92,1044.66z"/>
<g>
	<circle class="st1" cx="289.35" cy="230.54" r="13.97"/>
	<g>
		<text transform="matrix(1 0 0 1 238.4679 347.6858)" class="st3 st4 st5">PHASE 1</text>
		<rect x="189.75" y="388.35" class="st6" width="336.66" height="465.9"/>
		<text transform="matrix(1 0 0 1 189.7469 402.7812)"><tspan x="0" y="0" class="st3 st7 st8">Launch Social Media Sites</tspan><tspan x="0" y="40.8" class="st3 st7 st8">Launch Token Website</tspan><tspan x="0" y="81.6" class="st3 st7 st8">Apply for Listing on</tspan><tspan x="0" y="102" class="st3 st7 st8">CoinGecko</tspan><tspan x="0" y="142.8" class="st3 st7 st8">Apply for Listing on</tspan><tspan x="0" y="163.2" class="st3 st7 st8">CoinMarketCap</tspan><tspan x="0" y="204" class="st3 st7 st8">Begin Marketing on</tspan><tspan x="0" y="224.4" class="st3 st7 st8">Social Media</tspan><tspan x="0" y="265.2" class="st3 st7 st8">Develop Partnership with </tspan><tspan x="0" y="285.6" class="st3 st7 st8">Worldwide animal shelters for Charity </tspan><tspan x="0" y="306" class="st3 st7 st8">Donations</tspan><tspan x="0" y="346.8" class="st3 st7 st8">Expand Team by 15% to Support Future </tspan><tspan x="0" y="367.2" class="st3 st7 st8">Development</tspan><tspan x="0" y="387.6" class="st3 st7 st8">at Headquarters</tspan><tspan x="0" y="428.4" class="st3 st7 st8">Press Releases announcing MiniDoge </tspan><tspan x="0" y="448.8" class="st3 st7 st8">and Project Initiatives</tspan></text>
	</g>
</g>
<g>
	<circle class="st1" cx="750.68" cy="230.54" r="13.97"/>
	<g>
		<text transform="matrix(1 0 0 1 698.3955 347.6858)" class="st3 st4 st5">PHASE 2</text>
		<rect x="655.13" y="388.35" class="st6" width="345.52" height="613.73"/>
		<text transform="matrix(1 0 0 1 655.1345 402.7812)"><tspan x="0" y="0" class="st3 st7 st8">Donation to Animal Shelter</tspan><tspan x="0" y="40.8" class="st3 st7 st8">Apply for New Exchange Listings</tspan><tspan x="0" y="81.6" class="st3 st7 st8">MiniDoge Wallet for iOS, Android &amp; Web</tspan><tspan x="0" y="122.4" class="st3 st7 st8">Partnership with Simplex and/or Transak</tspan><tspan x="0" y="163.2" class="st3 st7 st8">Development of </tspan><tspan x="0" y="183.6" class="st3 st7 st8">MiniPets Adventure Game</tspan><tspan x="0" y="224.4" class="st3 st7 st8">Release MiniGames Series</tspan><tspan x="0" y="244.8" class="st3 st7 st8">for iOS &amp; Android</tspan><tspan x="0" y="285.6" class="st3 st7 st8">Develop DogeEX</tspan><tspan x="0" y="326.4" class="st3 st7 st8">Build additional Charity Partnerships </tspan><tspan x="0" y="346.8" class="st3 st7 st8">Worldwide</tspan><tspan x="0" y="387.6" class="st3 st7 st8">New NFT Series Released</tspan><tspan x="0" y="428.4" class="st3 st7 st8">Build Partnership with Largest social </tspan><tspan x="0" y="448.8" class="st3 st7 st8">media platforms</tspan><tspan x="0" y="489.6" class="st3 st7 st8">Community Vote</tspan><tspan x="0" y="530.4" class="st3 st7 st8">BlockFolio Listing</tspan><tspan x="0" y="571.2" class="st3 st7 st8">Launch of MiniDoge Merchendise Store</tspan></text>
	</g>
</g>
<g>
	<text transform="matrix(1 0 0 1 1162.4966 347.6858)" class="st3 st4 st5">PHASE 3</text>
	<rect x="1120.19" y="388.35" class="st6" width="336.66" height="465.9"/>
	<text transform="matrix(1 0 0 1 1120.1877 402.7812)"><tspan x="0" y="0" class="st3 st7 st8">Community vote for 2022 Initiatives</tspan><tspan x="0" y="40.8" class="st3 st7 st8">Release of MiniPets Adventure Game</tspan><tspan x="0" y="81.6" class="st3 st7 st8">Partner with Artist for NFT Series</tspan><tspan x="0" y="122.4" class="st3 st7 st8">Additional Initiatives added based on </tspan><tspan x="0" y="142.8" class="st3 st7 st8">community vote in 1st and 2nd Phases</tspan></text>
	<circle class="st1" cx="1219.41" cy="230.54" r="13.97"/>
</g>
<g>
	<circle class="st1" cx="1612.31" cy="230.54" r="13.97"/>
	<g>
		<text transform="matrix(1 0 0 1 1559.1764 347.6858)" class="st3 st4 st5">PHASE 4</text>
		<rect x="1518.88" y="388.35" class="st6" width="336.66" height="465.9"/>
		<text transform="matrix(1 0 0 1 1518.8832 402.7812)"><tspan x="0" y="0" class="st3 st7 st8">Top 10 MarketCap listing on </tspan><tspan x="0" y="20.4" class="st3 st7 st8">CoinMarketCap and CoinGecko</tspan></text>
	</g>
</g>
<g>
	<polygon class="st1" points="172.47,405.22 172.36,404.89 172.16,404.36 172.03,404.02 171.66,403.36 171.16,402.72 170.5,402.12
		169.73,401.42 169.09,400.82 168.49,400.15 167.99,399.48 167.53,398.78 167.03,397.85 166.73,397.22 166.36,396.51 165.89,395.75
		165.36,395.05 164.99,394.68 164.62,394.35 164.12,393.98 163.52,393.71 162.75,393.44 161.99,393.34 161.19,393.34 160.42,393.44
		159.32,393.84 158.25,394.58 157.55,395.28 157.12,395.95 156.68,396.71 156.11,397.88 155.58,398.92 154.98,399.72 154.25,400.65
		152.08,402.65 151.88,402.82 151.38,403.52 150.98,404.32 150.74,405.32 150.61,406.22 150.58,407.23 150.68,407.89 150.98,408.83
		151.41,409.7 151.88,410.3 152.48,410.9 153.28,411.43 154.21,411.86 154.91,412.03 155.98,412.06 157.02,411.83 157.65,411.53
		157.92,411.33 158.52,411 159.08,410.66 159.58,410.36 160.12,410.13 160.55,409.93 161.05,409.8 161.59,409.76 162.22,409.86
		162.69,409.96 163.46,410.33 164.39,410.8 165.16,411.3 165.86,411.7 166.56,412 167.23,412.13 167.79,412.16 168.26,412.13
		168.99,411.93 169.93,411.5 170.6,411.03 171.3,410.33 171.8,409.66 172.23,408.76 172.5,407.89 172.6,407.16 172.6,406.39
		172.57,405.96 	"/>
	<path class="st1" d="M165.67,392.36c1.98,0.21,3.83-1.91,4.12-4.73c0.3-2.82-1.06-5.28-3.04-5.49c-1.98-0.21-3.83,1.91-4.12,4.73
		C162.33,389.7,163.7,392.15,165.67,392.36z"/>
	<path class="st1" d="M157.49,392.35c1.98-0.21,3.34-2.67,3.04-5.49c-0.3-2.82-2.15-4.94-4.12-4.73c-1.98,0.21-3.34,2.67-3.04,5.49
		C153.66,390.44,155.51,392.56,157.49,392.35z"/>
	<path class="st1" d="M174.01,390.23L174.01,390.23c-1.94-0.43-4.01,1.45-4.63,4.2c-0.61,2.75,0.47,5.33,2.41,5.77
		c1.94,0.43,4.01-1.45,4.63-4.2C177.03,393.25,175.95,390.66,174.01,390.23z"/>
	<path class="st1" d="M151.38,400.2c1.94-0.43,3.02-3.01,2.41-5.77c-0.61-2.75-2.68-4.63-4.63-4.2c-1.94,0.43-3.02,3.01-2.41,5.77
		C147.37,398.75,149.44,400.63,151.38,400.2z"/>
</g>
<g>
	<polygon class="st1" points="638.94,405.22 638.84,404.89 638.64,404.36 638.5,404.02 638.14,403.36 637.64,402.72 636.97,402.12
		636.2,401.42 635.57,400.82 634.97,400.15 634.47,399.48 634,398.78 633.5,397.85 633.2,397.22 632.83,396.51 632.36,395.75
		631.83,395.05 631.46,394.68 631.1,394.35 630.6,393.98 630,393.71 629.23,393.44 628.46,393.34 627.66,393.34 626.89,393.44
		625.79,393.84 624.72,394.58 624.02,395.28 623.59,395.95 623.15,396.71 622.59,397.88 622.05,398.92 621.45,399.72 620.72,400.65
		618.55,402.65 618.35,402.82 617.85,403.52 617.45,404.32 617.22,405.32 617.08,406.22 617.05,407.23 617.15,407.89 617.45,408.83
		617.88,409.7 618.35,410.3 618.95,410.9 619.75,411.43 620.69,411.86 621.39,412.03 622.45,412.06 623.49,411.83 624.12,411.53
		624.39,411.33 624.99,411 625.56,410.66 626.06,410.36 626.59,410.13 627.03,409.93 627.53,409.8 628.06,409.76 628.69,409.86
		629.16,409.96 629.93,410.33 630.86,410.8 631.63,411.3 632.33,411.7 633.03,412 633.7,412.13 634.27,412.16 634.73,412.13
		635.47,411.93 636.4,411.5 637.07,411.03 637.77,410.33 638.27,409.66 638.7,408.76 638.97,407.89 639.07,407.16 639.07,406.39
		639.04,405.96 	"/>
	<path class="st1" d="M632.15,392.36c1.98,0.21,3.83-1.91,4.12-4.73c0.3-2.82-1.06-5.28-3.04-5.49c-1.98-0.21-3.83,1.91-4.12,4.73
		C628.81,389.7,630.17,392.15,632.15,392.36z"/>
	<path class="st1" d="M623.96,392.35c1.98-0.21,3.34-2.67,3.04-5.49c-0.3-2.82-2.15-4.94-4.12-4.73c-1.98,0.21-3.34,2.67-3.04,5.49
		C620.14,390.44,621.98,392.56,623.96,392.35z"/>
	<path class="st1" d="M640.48,390.23L640.48,390.23c-1.94-0.43-4.01,1.45-4.63,4.2c-0.61,2.75,0.46,5.33,2.41,5.77
		c1.94,0.43,4.01-1.45,4.63-4.2C643.5,393.25,642.42,390.66,640.48,390.23z"/>
	<path class="st1" d="M617.86,400.2c1.94-0.43,3.02-3.01,2.41-5.77c-0.61-2.75-2.68-4.63-4.63-4.2c-1.94,0.43-3.02,3.01-2.41,5.77
		C613.84,398.75,615.91,400.63,617.86,400.2z"/>
</g>
<g>
	<polygon class="st1" points="638.94,448.02 638.84,447.69 638.64,447.16 638.5,446.82 638.14,446.15 637.64,445.52 636.97,444.92
		636.2,444.22 635.57,443.62 634.97,442.95 634.47,442.28 634,441.58 633.5,440.65 633.2,440.01 632.83,439.31 632.36,438.55
		631.83,437.85 631.46,437.48 631.1,437.15 630.6,436.78 630,436.51 629.23,436.24 628.46,436.14 627.66,436.14 626.89,436.24
		625.79,436.64 624.72,437.38 624.02,438.08 623.59,438.75 623.15,439.51 622.59,440.68 622.05,441.72 621.45,442.52 620.72,443.45
		618.55,445.45 618.35,445.62 617.85,446.32 617.45,447.12 617.22,448.12 617.08,449.02 617.05,450.03 617.15,450.69 617.45,451.63
		617.88,452.49 618.35,453.1 618.95,453.7 619.75,454.23 620.69,454.66 621.39,454.83 622.45,454.86 623.49,454.63 624.12,454.33
		624.39,454.13 624.99,453.8 625.56,453.46 626.06,453.16 626.59,452.93 627.03,452.73 627.53,452.59 628.06,452.56 628.69,452.66
		629.16,452.76 629.93,453.13 630.86,453.6 631.63,454.1 632.33,454.5 633.03,454.8 633.7,454.93 634.27,454.96 634.73,454.93
		635.47,454.73 636.4,454.3 637.07,453.83 637.77,453.13 638.27,452.46 638.7,451.56 638.97,450.69 639.07,449.96 639.07,449.19
		639.04,448.76 	"/>
	<path class="st1" d="M632.15,435.16c1.98,0.21,3.83-1.91,4.12-4.73c0.3-2.82-1.06-5.28-3.04-5.49c-1.98-0.21-3.83,1.91-4.12,4.73
		C628.81,432.5,630.17,434.95,632.15,435.16z"/>
	<path class="st1" d="M623.96,435.15c1.98-0.21,3.34-2.67,3.04-5.49c-0.3-2.82-2.15-4.94-4.12-4.73c-1.98,0.21-3.34,2.67-3.04,5.49
		C620.14,433.24,621.98,435.36,623.96,435.15z"/>
	<path class="st1" d="M640.48,433.03L640.48,433.03c-1.94-0.43-4.01,1.45-4.63,4.2c-0.61,2.75,0.46,5.33,2.41,5.77
		c1.94,0.43,4.01-1.45,4.63-4.2C643.5,436.05,642.42,433.46,640.48,433.03z"/>
	<path class="st1" d="M617.86,443c1.94-0.43,3.02-3.01,2.41-5.77c-0.61-2.75-2.68-4.63-4.63-4.2c-1.94,0.43-3.02,3.01-2.41,5.77
		C613.84,441.55,615.91,443.43,617.86,443z"/>
</g>
<g>
	<polygon class="st1" points="638.94,976.67 638.84,976.34 638.64,975.8 638.5,975.47 638.14,974.8 637.64,974.17 636.97,973.57
		636.2,972.87 635.57,972.27 634.97,971.6 634.47,970.93 634,970.23 633.5,969.3 633.2,968.66 632.83,967.96 632.36,967.2
		631.83,966.49 631.46,966.13 631.1,965.79 630.6,965.43 630,965.16 629.23,964.89 628.46,964.79 627.66,964.79 626.89,964.89
		625.79,965.29 624.72,966.03 624.02,966.73 623.59,967.4 623.15,968.16 622.59,969.33 622.05,970.37 621.45,971.17 620.72,972.1
		618.55,974.1 618.35,974.27 617.85,974.97 617.45,975.77 617.22,976.77 617.08,977.67 617.05,978.67 617.15,979.34 617.45,980.28
		617.88,981.14 618.35,981.74 618.95,982.34 619.75,982.88 620.69,983.31 621.39,983.48 622.45,983.51 623.49,983.28 624.12,982.98
		624.39,982.78 624.99,982.44 625.56,982.11 626.06,981.81 626.59,981.58 627.03,981.38 627.53,981.24 628.06,981.21 628.69,981.31
		629.16,981.41 629.93,981.78 630.86,982.24 631.63,982.75 632.33,983.15 633.03,983.45 633.7,983.58 634.27,983.61 634.73,983.58
		635.47,983.38 636.4,982.95 637.07,982.48 637.77,981.78 638.27,981.11 638.7,980.21 638.97,979.34 639.07,978.61 639.07,977.84
		639.04,977.41 	"/>
	<path class="st1" d="M632.15,963.81c1.98,0.21,3.83-1.91,4.12-4.73c0.3-2.82-1.06-5.28-3.04-5.49c-1.98-0.21-3.83,1.91-4.12,4.73
		C628.81,961.15,630.17,963.6,632.15,963.81z"/>
	<path class="st1" d="M623.96,963.8c1.98-0.21,3.34-2.67,3.04-5.49c-0.3-2.82-2.15-4.94-4.12-4.73c-1.98,0.21-3.34,2.67-3.04,5.49
		C620.14,961.89,621.98,964.01,623.96,963.8z"/>
	<path class="st1" d="M640.48,961.68L640.48,961.68c-1.94-0.43-4.01,1.45-4.63,4.2c-0.61,2.75,0.46,5.33,2.41,5.77
		c1.94,0.43,4.01-1.45,4.63-4.2C643.5,964.69,642.42,962.11,640.48,961.68z"/>
	<path class="st1" d="M617.86,971.65c1.94-0.43,3.02-3.01,2.41-5.77c-0.61-2.75-2.68-4.63-4.63-4.2c-1.94,0.43-3.02,3.01-2.41,5.77
		C613.84,970.2,615.91,972.08,617.86,971.65z"/>
</g>
<g>
	<polygon class="st1" points="172.47,447.89 172.36,447.55 172.16,447.02 172.03,446.69 171.66,446.02 171.16,445.39 170.5,444.79
		169.73,444.08 169.09,443.48 168.49,442.82 167.99,442.15 167.53,441.45 167.03,440.51 166.73,439.88 166.36,439.18 165.89,438.41
		165.36,437.71 164.99,437.34 164.62,437.01 164.12,436.64 163.52,436.38 162.75,436.11 161.99,436.01 161.19,436.01 160.42,436.11
		159.32,436.51 158.25,437.24 157.55,437.94 157.12,438.61 156.68,439.38 156.11,440.55 155.58,441.58 154.98,442.38 154.25,443.32
		152.08,445.32 151.88,445.49 151.38,446.19 150.98,446.99 150.74,447.99 150.61,448.89 150.58,449.89 150.68,450.56 150.98,451.49
		151.41,452.36 151.88,452.96 152.48,453.56 153.28,454.09 154.21,454.53 154.91,454.7 155.98,454.73 157.02,454.5 157.65,454.19
		157.92,453.99 158.52,453.66 159.08,453.33 159.58,453.03 160.12,452.79 160.55,452.59 161.05,452.46 161.59,452.43 162.22,452.53
		162.69,452.63 163.46,452.99 164.39,453.46 165.16,453.96 165.86,454.36 166.56,454.66 167.23,454.8 167.79,454.83 168.26,454.8
		168.99,454.6 169.93,454.16 170.6,453.69 171.3,452.99 171.8,452.33 172.23,451.43 172.5,450.56 172.6,449.82 172.6,449.06
		172.57,448.62 	"/>
	<path class="st1" d="M165.67,435.03c1.98,0.21,3.83-1.91,4.12-4.73c0.3-2.82-1.06-5.28-3.04-5.49c-1.98-0.21-3.83,1.91-4.12,4.73
		C162.33,432.36,163.7,434.82,165.67,435.03z"/>
	<path class="st1" d="M157.49,435.02c1.98-0.21,3.34-2.67,3.04-5.49c-0.3-2.82-2.15-4.94-4.12-4.73c-1.98,0.21-3.34,2.67-3.04,5.49
		C153.66,433.11,155.51,435.22,157.49,435.02z"/>
	<path class="st1" d="M174.01,432.9L174.01,432.9c-1.94-0.43-4.01,1.45-4.63,4.2c-0.61,2.75,0.47,5.33,2.41,5.77
		c1.94,0.43,4.01-1.45,4.63-4.2C177.03,435.91,175.95,433.33,174.01,432.9z"/>
	<path class="st1" d="M151.38,442.86c1.94-0.43,3.02-3.01,2.41-5.77c-0.61-2.75-2.68-4.63-4.63-4.2c-1.94,0.43-3.02,3.01-2.41,5.77
		C147.37,441.41,149.44,443.29,151.38,442.86z"/>
</g>
<g>
	<polygon class="st1" points="172.47,490.55 172.36,490.22 172.16,489.69 172.03,489.35 171.66,488.68 171.16,488.05 170.5,487.45
		169.73,486.75 169.09,486.15 168.49,485.48 167.99,484.81 167.53,484.11 167.03,483.18 166.73,482.54 166.36,481.84 165.89,481.08
		165.36,480.38 164.99,480.01 164.62,479.67 164.12,479.31 163.52,479.04 162.75,478.77 161.99,478.67 161.19,478.67 160.42,478.77
		159.32,479.17 158.25,479.91 157.55,480.61 157.12,481.28 156.68,482.04 156.11,483.21 155.58,484.25 154.98,485.05 154.25,485.98
		152.08,487.98 151.88,488.15 151.38,488.85 150.98,489.65 150.74,490.65 150.61,491.55 150.58,492.55 150.68,493.22 150.98,494.16
		151.41,495.02 151.88,495.62 152.48,496.23 153.28,496.76 154.21,497.19 154.91,497.36 155.98,497.39 157.02,497.16 157.65,496.86
		157.92,496.66 158.52,496.33 159.08,495.99 159.58,495.69 160.12,495.46 160.55,495.26 161.05,495.12 161.59,495.09 162.22,495.19
		162.69,495.29 163.46,495.66 164.39,496.13 165.16,496.63 165.86,497.03 166.56,497.33 167.23,497.46 167.79,497.49 168.26,497.46
		168.99,497.26 169.93,496.83 170.6,496.36 171.3,495.66 171.8,494.99 172.23,494.09 172.5,493.22 172.6,492.49 172.6,491.72
		172.57,491.29 	"/>
	<path class="st1" d="M165.67,477.69c1.98,0.21,3.83-1.91,4.12-4.73c0.3-2.82-1.06-5.28-3.04-5.49c-1.98-0.21-3.83,1.91-4.12,4.73
		C162.33,475.03,163.7,477.48,165.67,477.69z"/>
	<path class="st1" d="M157.49,477.68c1.98-0.21,3.34-2.67,3.04-5.49c-0.3-2.82-2.15-4.94-4.12-4.73c-1.98,0.21-3.34,2.67-3.04,5.49
		C153.66,475.77,155.51,477.89,157.49,477.68z"/>
	<path class="st1" d="M174.01,475.56L174.01,475.56c-1.94-0.43-4.01,1.45-4.63,4.2c-0.61,2.75,0.47,5.33,2.41,5.77
		c1.94,0.43,4.01-1.45,4.63-4.2C177.03,478.57,175.95,475.99,174.01,475.56z"/>
	<path class="st1" d="M151.38,485.53c1.94-0.43,3.02-3.01,2.41-5.77c-0.61-2.75-2.68-4.63-4.63-4.2c-1.94,0.43-3.02,3.01-2.41,5.77
		C147.37,484.08,149.44,485.96,151.38,485.53z"/>
</g>
<g>
	<polygon class="st1" points="172.47,548.58 172.36,548.25 172.16,547.72 172.03,547.38 171.66,546.72 171.16,546.08 170.5,545.48
		169.73,544.78 169.09,544.18 168.49,543.51 167.99,542.84 167.53,542.14 167.03,541.21 166.73,540.58 166.36,539.87 165.89,539.11
		165.36,538.41 164.99,538.04 164.62,537.71 164.12,537.34 163.52,537.07 162.75,536.8 161.99,536.7 161.19,536.7 160.42,536.8
		159.32,537.21 158.25,537.94 157.55,538.64 157.12,539.31 156.68,540.07 156.11,541.24 155.58,542.28 154.98,543.08 154.25,544.01
		152.08,546.01 151.88,546.18 151.38,546.88 150.98,547.68 150.74,548.68 150.61,549.58 150.58,550.59 150.68,551.25 150.98,552.19
		151.41,553.06 151.88,553.66 152.48,554.26 153.28,554.79 154.21,555.22 154.91,555.39 155.98,555.42 157.02,555.19 157.65,554.89
		157.92,554.69 158.52,554.36 159.08,554.02 159.58,553.72 160.12,553.49 160.55,553.29 161.05,553.16 161.59,553.12 162.22,553.22
		162.69,553.32 163.46,553.69 164.39,554.16 165.16,554.66 165.86,555.06 166.56,555.36 167.23,555.49 167.79,555.52 168.26,555.49
		168.99,555.29 169.93,554.86 170.6,554.39 171.3,553.69 171.8,553.02 172.23,552.12 172.5,551.25 172.6,550.52 172.6,549.75
		172.57,549.32 	"/>
	<path class="st1" d="M165.67,535.72c1.98,0.21,3.83-1.91,4.12-4.73c0.3-2.82-1.06-5.28-3.04-5.49c-1.98-0.21-3.83,1.91-4.12,4.73
		C162.33,533.06,163.7,535.52,165.67,535.72z"/>
	<path class="st1" d="M157.49,535.71c1.98-0.21,3.34-2.67,3.04-5.49c-0.3-2.82-2.15-4.94-4.12-4.73c-1.98,0.21-3.34,2.67-3.04,5.49
		C153.66,533.8,155.51,535.92,157.49,535.71z"/>
	<path class="st1" d="M174.01,533.59L174.01,533.59c-1.94-0.43-4.01,1.45-4.63,4.2c-0.61,2.75,0.47,5.33,2.41,5.77
		c1.94,0.43,4.01-1.45,4.63-4.2C177.03,536.61,175.95,534.02,174.01,533.59z"/>
	<path class="st1" d="M151.38,543.56c1.94-0.43,3.02-3.01,2.41-5.77c-0.61-2.75-2.68-4.63-4.63-4.2c-1.94,0.43-3.02,3.01-2.41,5.77
		C147.37,542.11,149.44,543.99,151.38,543.56z"/>
</g>
<g>
	<polygon class="st1" points="172.47,612.28 172.36,611.95 172.16,611.41 172.03,611.08 171.66,610.41 171.16,609.78 170.5,609.18
		169.73,608.48 169.09,607.88 168.49,607.21 167.99,606.54 167.53,605.84 167.03,604.91 166.73,604.27 166.36,603.57 165.89,602.8
		165.36,602.1 164.99,601.74 164.62,601.4 164.12,601.03 163.52,600.77 162.75,600.5 161.99,600.4 161.19,600.4 160.42,600.5
		159.32,600.9 158.25,601.64 157.55,602.34 157.12,603 156.68,603.77 156.11,604.94 155.58,605.97 154.98,606.77 154.25,607.71
		152.08,609.71 151.88,609.88 151.38,610.58 150.98,611.38 150.74,612.38 150.61,613.28 150.58,614.28 150.68,614.95 150.98,615.88
		151.41,616.75 151.88,617.35 152.48,617.95 153.28,618.49 154.21,618.92 154.91,619.09 155.98,619.12 157.02,618.89 157.65,618.59
		157.92,618.39 158.52,618.05 159.08,617.72 159.58,617.42 160.12,617.19 160.55,616.99 161.05,616.85 161.59,616.82 162.22,616.92
		162.69,617.02 163.46,617.39 164.39,617.85 165.16,618.35 165.86,618.75 166.56,619.05 167.23,619.19 167.79,619.22 168.26,619.19
		168.99,618.99 169.93,618.55 170.6,618.09 171.3,617.39 171.8,616.72 172.23,615.82 172.5,614.95 172.6,614.22 172.6,613.45
		172.57,613.01 	"/>
	<path class="st1" d="M165.67,599.42c1.98,0.21,3.83-1.91,4.12-4.73c0.3-2.82-1.06-5.28-3.04-5.49c-1.98-0.21-3.83,1.91-4.12,4.73
		C162.33,596.75,163.7,599.21,165.67,599.42z"/>
	<path class="st1" d="M157.49,599.41c1.98-0.21,3.34-2.67,3.04-5.49c-0.3-2.82-2.15-4.94-4.12-4.73c-1.98,0.21-3.34,2.67-3.04,5.49
		C153.66,597.5,155.51,599.62,157.49,599.41z"/>
	<path class="st1" d="M174.01,597.29L174.01,597.29c-1.94-0.43-4.01,1.45-4.63,4.2c-0.61,2.75,0.47,5.33,2.41,5.77
		c1.94,0.43,4.01-1.45,4.63-4.2C177.03,600.3,175.95,597.72,174.01,597.29z"/>
	<path class="st1" d="M151.38,607.25c1.94-0.43,3.02-3.01,2.41-5.77c-0.61-2.75-2.68-4.63-4.63-4.2c-1.94,0.43-3.02,3.01-2.41,5.77
		C147.37,605.81,149.44,607.69,151.38,607.25z"/>
</g>
<g>
	<polygon class="st1" points="172.47,835.97 172.36,835.64 172.16,835.1 172.03,834.77 171.66,834.1 171.16,833.47 170.5,832.87
		169.73,832.17 169.09,831.57 168.49,830.9 167.99,830.23 167.53,829.53 167.03,828.6 166.73,827.96 166.36,827.26 165.89,826.49
		165.36,825.79 164.99,825.43 164.62,825.09 164.12,824.72 163.52,824.46 162.75,824.19 161.99,824.09 161.19,824.09 160.42,824.19
		159.32,824.59 158.25,825.33 157.55,826.03 157.12,826.69 156.68,827.46 156.11,828.63 155.58,829.66 154.98,830.46 154.25,831.4
		152.08,833.4 151.88,833.57 151.38,834.27 150.98,835.07 150.74,836.07 150.61,836.97 150.58,837.97 150.68,838.64 150.98,839.57
		151.41,840.44 151.88,841.04 152.48,841.64 153.28,842.18 154.21,842.61 154.91,842.78 155.98,842.81 157.02,842.58 157.65,842.28
		157.92,842.08 158.52,841.74 159.08,841.41 159.58,841.11 160.12,840.87 160.55,840.67 161.05,840.54 161.59,840.51 162.22,840.61
		162.69,840.71 163.46,841.08 164.39,841.54 165.16,842.04 165.86,842.44 166.56,842.74 167.23,842.88 167.79,842.91 168.26,842.88
		168.99,842.68 169.93,842.24 170.6,841.78 171.3,841.08 171.8,840.41 172.23,839.51 172.5,838.64 172.6,837.91 172.6,837.14
		172.57,836.7 	"/>
	<path class="st1" d="M165.67,823.11c1.98,0.21,3.83-1.91,4.12-4.73c0.3-2.82-1.06-5.28-3.04-5.49c-1.98-0.21-3.83,1.91-4.12,4.73
		C162.33,820.44,163.7,822.9,165.67,823.11z"/>
	<path class="st1" d="M157.49,823.1c1.98-0.21,3.34-2.67,3.04-5.49c-0.3-2.82-2.15-4.94-4.12-4.73c-1.98,0.21-3.34,2.67-3.04,5.49
		C153.66,821.19,155.51,823.31,157.49,823.1z"/>
	<path class="st1" d="M174.01,820.98L174.01,820.98c-1.94-0.43-4.01,1.45-4.63,4.2c-0.61,2.75,0.47,5.33,2.41,5.77
		c1.94,0.43,4.01-1.45,4.63-4.2C177.03,823.99,175.95,821.41,174.01,820.98z"/>
	<path class="st1" d="M151.38,830.94c1.94-0.43,3.02-3.01,2.41-5.77c-0.61-2.75-2.68-4.63-4.63-4.2c-1.94,0.43-3.02,3.01-2.41,5.77
		C147.37,829.5,149.44,831.38,151.38,830.94z"/>
</g>
</svg>
