<svg id="svg" version="1.1" xmlns="http://www.w3.org/2000/svg" xmlns:xlink="http://www.w3.org/1999/xlink" width="400" height="103.36842105263158" viewBox="0, 0, 400,103.36842105263158"><g id="svgg"><path id="path0" d="M200.083 9.174 C 199.258 9.258,198.013 9.441,197.317 9.580 C 196.620 9.719,195.898 9.833,195.713 9.833 C 195.528 9.833,194.560 10.088,193.563 10.398 C 189.067 11.800,185.329 13.996,182.899 16.667 C 182.607 16.987,182.184 17.448,181.959 17.690 C 179.065 20.804,176.574 27.681,176.233 33.500 C 175.748 41.784,180.520 52.505,186.419 56.383 C 186.784 56.623,187.512 57.116,188.036 57.478 C 193.698 61.391,204.703 63.359,210.935 61.574 C 211.418 61.436,211.500 61.941,211.499 65.063 C 211.496 80.768,206.106 87.299,196.333 83.441 C 195.737 83.206,195.147 82.991,195.022 82.965 C 194.790 82.916,194.177 85.354,193.861 87.583 C 193.783 88.133,193.551 89.446,193.346 90.500 C 193.140 91.554,192.760 93.504,192.500 94.833 C 191.885 97.981,191.634 99.523,191.722 99.611 C 191.906 99.795,196.861 100.666,199.199 100.925 C 205.487 101.623,212.409 100.484,216.250 98.121 C 221.686 94.776,225.544 89.294,227.597 82.000 C 228.323 79.419,229.140 75.696,229.329 74.099 C 229.406 73.449,229.619 71.754,229.803 70.333 C 230.937 61.570,231.389 28.163,230.572 13.458 L 230.463 11.500 223.444 11.500 L 216.425 11.500 215.337 11.095 C 211.382 9.622,204.363 8.738,200.083 9.174 M24.001 10.832 C 19.695 11.317,15.863 12.061,15.718 12.440 C 15.666 12.575,15.710 14.237,15.815 16.134 C 15.919 18.031,16.196 22.996,16.430 27.167 C 16.664 31.337,16.922 36.962,17.005 39.667 C 17.087 42.371,17.231 46.271,17.324 48.333 C 17.701 56.678,17.829 62.579,17.932 76.417 C 17.991 84.392,18.086 90.961,18.144 91.016 C 18.384 91.242,23.365 91.504,27.373 91.502 C 33.135 91.499,38.093 90.766,40.975 89.492 C 41.378 89.313,41.779 89.167,41.864 89.167 C 41.949 89.167,42.370 89.010,42.801 88.818 C 45.337 87.689,46.603 87.103,46.750 86.992 C 46.842 86.922,47.292 86.662,47.750 86.412 C 49.050 85.706,49.158 85.640,50.750 84.591 C 54.004 82.446,58.290 78.582,60.650 75.667 C 61.132 75.071,61.652 74.433,61.805 74.250 C 61.958 74.067,62.158 73.792,62.250 73.639 C 62.342 73.486,62.773 72.863,63.208 72.256 C 63.644 71.648,64.000 71.104,64.000 71.047 C 64.000 70.990,64.105 70.825,64.233 70.680 C 64.473 70.409,64.784 69.883,65.820 67.996 C 71.652 57.373,71.917 43.224,66.476 32.946 C 66.388 32.779,66.155 32.329,65.959 31.946 C 65.147 30.359,63.489 27.775,62.505 26.564 C 62.273 26.278,61.858 25.759,61.583 25.411 C 59.847 23.212,58.015 21.393,55.517 19.387 C 54.912 18.900,54.342 18.442,54.250 18.368 C 54.075 18.227,52.312 17.062,51.746 16.714 C 49.212 15.153,45.170 13.337,42.667 12.633 C 42.346 12.543,41.596 12.327,41.000 12.153 C 39.814 11.808,39.154 11.678,35.917 11.153 C 33.504 10.761,26.340 10.568,24.001 10.832 M164.667 12.484 C 163.571 12.649,156.812 15.771,155.857 16.552 C 155.733 16.654,155.494 16.815,155.326 16.910 C 152.980 18.243,148.569 21.276,146.564 22.935 C 145.912 23.475,144.675 24.493,143.814 25.198 C 142.954 25.903,141.848 26.859,141.356 27.323 C 140.278 28.340,140.413 28.333,139.036 27.443 C 137.373 26.368,136.673 25.960,135.758 25.535 C 134.257 24.837,132.431 24.147,131.417 23.895 C 127.316 22.875,127.927 22.942,122.667 22.938 C 118.249 22.935,117.572 22.972,116.000 23.299 C 112.674 23.991,112.080 24.138,111.333 24.459 C 110.921 24.636,110.386 24.829,110.146 24.888 C 109.758 24.984,107.816 25.890,106.419 26.626 C 106.146 26.771,105.447 27.214,104.867 27.611 C 103.580 28.493,103.784 28.511,102.583 27.406 C 101.156 26.092,100.993 25.953,100.250 25.419 C 99.883 25.156,99.283 24.687,98.917 24.378 C 98.163 23.743,98.134 23.721,97.333 23.159 C 97.013 22.934,96.712 22.712,96.667 22.666 C 96.571 22.570,95.336 21.705,94.765 21.333 C 94.553 21.196,93.848 20.727,93.199 20.292 C 92.549 19.856,91.945 19.500,91.856 19.500 C 91.767 19.500,91.669 19.433,91.639 19.351 C 91.483 18.935,83.304 14.606,82.000 14.250 C 81.771 14.187,81.278 13.993,80.906 13.818 C 76.703 11.846,71.772 14.421,71.275 18.848 C 71.012 21.190,72.103 27.868,73.424 32.000 C 74.312 34.778,74.872 36.442,75.077 36.917 C 75.197 37.192,75.390 37.679,75.507 38.000 C 75.624 38.321,75.886 38.958,76.090 39.417 C 76.293 39.875,76.637 40.662,76.854 41.167 C 78.197 44.288,81.442 50.218,83.648 53.583 C 84.068 54.225,84.488 54.871,84.581 55.020 C 84.674 55.168,84.896 55.497,85.075 55.750 C 85.460 56.295,85.450 56.592,84.955 59.250 C 83.810 65.405,84.668 73.672,86.951 78.500 C 88.122 80.974,91.087 85.161,91.897 85.483 C 91.989 85.519,92.255 85.748,92.490 85.992 C 93.095 86.622,94.467 87.703,95.250 88.169 C 95.617 88.387,95.954 88.619,96.001 88.685 C 96.129 88.867,97.416 89.572,99.167 90.418 C 100.037 90.839,100.888 91.260,101.056 91.352 C 101.503 91.598,103.607 92.331,104.667 92.609 C 105.171 92.741,105.733 92.916,105.917 92.998 C 106.194 93.121,106.826 93.335,107.167 93.421 C 107.212 93.433,107.550 93.501,107.917 93.572 C 108.283 93.644,109.128 93.840,109.793 94.010 C 110.459 94.179,111.284 94.359,111.627 94.409 C 111.969 94.459,112.962 94.613,113.833 94.751 C 121.645 95.990,132.884 95.682,137.503 94.104 C 137.917 93.962,138.654 93.761,139.140 93.657 C 140.167 93.437,143.887 91.975,145.583 91.126 C 147.653 90.090,147.908 89.949,148.432 89.555 C 148.716 89.341,149.016 89.167,149.099 89.166 C 149.182 89.166,149.457 88.998,149.710 88.791 C 149.963 88.585,150.473 88.192,150.844 87.917 C 158.783 82.035,162.088 73.554,160.359 63.500 C 160.163 62.354,160.001 61.190,160.001 60.913 C 160.000 60.636,159.813 59.511,159.585 58.413 C 159.051 55.850,159.049 55.889,159.826 54.642 C 160.635 53.345,162.476 50.265,162.850 49.583 C 163.001 49.308,163.355 48.671,163.637 48.167 C 164.524 46.581,166.761 41.980,167.405 40.417 C 167.745 39.592,168.129 38.673,168.258 38.375 C 169.365 35.836,171.173 30.214,171.515 28.251 C 171.579 27.884,171.790 26.871,171.985 26.000 C 172.180 25.129,172.409 23.629,172.495 22.667 C 172.581 21.704,172.703 20.376,172.766 19.714 C 172.834 18.998,172.807 18.224,172.699 17.798 C 172.600 17.405,172.480 16.896,172.432 16.667 C 171.862 13.940,168.175 11.953,164.667 12.484 M259.417 13.443 C 258.775 13.475,256.787 13.617,255.000 13.758 C 253.213 13.899,250.753 14.083,249.535 14.166 C 247.499 14.306,245.333 14.555,239.869 15.279 C 238.743 15.428,237.778 15.621,237.724 15.708 C 237.671 15.795,237.785 24.015,237.979 33.975 C 238.172 43.934,238.452 58.796,238.599 67.000 C 238.747 75.204,238.916 81.964,238.976 82.022 C 239.035 82.080,244.333 82.174,250.750 82.231 C 257.167 82.288,265.424 82.383,269.099 82.442 L 275.782 82.549 275.885 81.483 C 275.979 80.505,276.175 77.036,276.674 67.527 C 276.776 65.572,276.835 63.948,276.805 63.919 C 276.775 63.890,275.925 64.008,274.917 64.182 C 273.908 64.355,272.633 64.541,272.083 64.595 C 271.533 64.649,270.183 64.832,269.083 65.003 C 267.983 65.173,266.644 65.361,266.108 65.420 C 265.572 65.480,264.972 65.555,264.775 65.587 C 263.064 65.869,259.939 66.334,259.333 66.397 C 258.921 66.440,258.190 66.528,257.708 66.592 L 256.833 66.710 256.833 63.797 C 256.833 62.195,256.881 60.216,256.939 59.399 L 257.044 57.913 267.564 57.915 L 278.083 57.917 278.192 55.923 C 278.299 53.954,278.786 48.096,279.585 39.167 C 280.585 27.987,280.747 25.825,280.998 20.333 C 281.251 14.796,281.232 13.731,280.875 13.575 C 280.585 13.448,261.646 13.332,259.417 13.443 M226.118 15.494 C 226.784 15.900,227.061 16.796,227.359 19.500 C 227.652 22.166,227.621 29.289,227.314 29.916 C 226.740 31.088,225.586 31.264,224.487 30.346 L 223.941 29.890 223.915 25.237 C 223.902 22.677,223.792 19.706,223.672 18.633 C 223.410 16.300,223.528 15.830,224.474 15.437 C 225.282 15.101,225.486 15.108,226.118 15.494 M45.417 17.331 C 48.746 19.001,48.886 19.082,50.185 20.104 C 51.280 20.965,54.333 23.953,54.333 24.164 C 54.333 24.229,54.483 24.455,54.667 24.667 C 55.474 25.598,54.584 27.367,53.309 27.367 C 52.590 27.367,51.640 26.782,51.229 26.087 C 50.535 24.911,47.462 22.360,45.333 21.191 C 44.456 20.710,42.712 19.847,41.821 19.454 C 40.251 18.762,39.870 17.991,40.522 16.830 C 41.272 15.496,41.883 15.559,45.417 17.331 M272.542 17.405 C 273.698 18.162,273.526 20.213,272.291 20.401 C 271.994 20.446,270.025 20.525,267.917 20.576 C 265.808 20.627,263.483 20.711,262.750 20.763 C 261.069 20.882,260.514 20.544,260.393 19.328 C 260.298 18.367,260.602 17.802,261.344 17.558 C 262.969 17.023,271.776 16.903,272.542 17.405 M167.909 18.015 C 168.777 18.777,168.928 19.472,168.694 21.628 C 168.441 23.968,167.939 26.864,167.599 27.945 C 167.450 28.420,167.263 29.132,167.183 29.529 C 166.990 30.492,165.751 34.034,165.007 35.750 C 163.733 38.687,161.807 42.343,160.431 44.432 C 160.255 44.698,159.842 45.329,159.514 45.833 C 159.185 46.337,158.879 46.788,158.833 46.833 C 158.787 46.879,158.412 47.367,158.000 47.917 C 157.014 49.232,156.826 49.420,156.693 49.230 C 156.633 49.143,156.227 48.550,155.792 47.911 C 155.357 47.273,154.641 46.225,154.201 45.583 C 153.761 44.942,152.994 43.817,152.496 43.083 C 151.998 42.350,151.552 41.712,151.504 41.667 C 151.456 41.621,151.042 41.021,150.583 40.333 C 150.125 39.646,149.687 39.037,149.610 38.981 C 149.533 38.924,149.383 38.733,149.277 38.556 C 149.170 38.379,148.933 37.983,148.750 37.676 C 148.567 37.369,148.210 36.875,147.958 36.578 C 147.706 36.282,147.500 35.996,147.500 35.942 C 147.500 35.889,146.938 35.055,146.250 34.089 C 145.563 33.123,145.000 32.304,145.000 32.268 C 145.000 32.045,151.002 26.588,152.902 25.083 C 153.250 24.808,153.622 24.508,153.729 24.417 C 153.837 24.325,154.261 23.990,154.671 23.671 C 155.081 23.353,155.492 23.030,155.583 22.953 C 156.116 22.509,158.179 21.047,158.555 20.847 C 158.800 20.717,159.000 20.548,159.000 20.472 C 159.000 20.396,159.078 20.333,159.173 20.333 C 159.269 20.333,159.736 20.071,160.213 19.750 C 160.689 19.429,161.139 19.167,161.212 19.167 C 161.285 19.167,161.545 19.035,161.790 18.875 C 162.222 18.592,162.485 18.479,164.250 17.822 C 165.647 17.301,167.188 17.382,167.909 18.015 M278.115 17.932 C 278.412 18.338,278.400 19.904,278.098 20.154 C 277.035 21.037,275.333 20.261,275.333 18.893 C 275.333 17.736,277.440 17.008,278.115 17.932 M78.990 19.069 C 80.200 19.505,81.278 20.059,83.287 21.277 C 85.043 22.341,88.606 24.881,90.018 26.075 C 91.326 27.181,92.251 27.931,92.820 28.348 C 93.148 28.588,93.717 29.063,94.083 29.404 C 94.450 29.744,94.960 30.187,95.216 30.387 C 95.473 30.586,95.887 30.938,96.137 31.167 C 96.387 31.396,96.976 31.925,97.445 32.343 L 98.299 33.103 97.517 33.948 C 94.946 36.730,93.099 39.211,91.153 42.493 C 90.748 43.176,90.326 43.889,90.215 44.076 C 90.104 44.263,89.967 44.529,89.911 44.667 C 89.855 44.804,89.735 45.053,89.645 45.221 C 89.014 46.394,88.392 47.745,87.859 49.103 C 87.683 49.551,87.490 49.900,87.430 49.880 C 87.303 49.837,86.167 48.370,86.167 48.249 C 86.167 48.204,85.804 47.659,85.360 47.038 C 84.917 46.416,84.448 45.708,84.318 45.466 C 84.189 45.223,83.713 44.362,83.260 43.554 C 82.018 41.337,80.000 37.177,80.000 36.835 C 80.000 36.748,79.822 36.281,79.605 35.797 C 79.388 35.313,79.161 34.708,79.101 34.454 C 79.041 34.199,78.806 33.585,78.579 33.090 C 78.352 32.594,78.167 32.092,78.167 31.974 C 78.167 31.856,77.983 31.195,77.759 30.505 C 77.288 29.058,76.872 27.575,76.636 26.500 C 76.545 26.087,76.279 24.925,76.044 23.917 C 74.925 19.105,75.674 17.872,78.990 19.069 M58.179 28.487 C 59.612 29.919,57.454 31.827,55.922 30.483 C 55.253 29.895,55.189 29.472,55.662 28.754 C 56.262 27.844,57.414 27.722,58.179 28.487 M206.583 29.602 C 207.408 29.844,208.683 30.283,209.417 30.578 L 210.750 31.114 210.867 31.932 C 211.201 34.264,211.228 43.333,210.901 43.346 C 210.487 43.362,210.163 43.424,208.301 43.847 C 202.391 45.189,198.054 43.718,196.171 39.733 C 193.012 33.046,198.874 27.342,206.583 29.602 M38.750 32.351 C 42.386 33.808,45.111 35.862,47.277 38.783 C 47.766 39.442,48.167 40.031,48.167 40.090 C 48.167 40.150,48.307 40.398,48.479 40.641 C 51.788 45.332,51.067 55.448,47.012 61.216 C 46.639 61.747,46.333 62.224,46.333 62.276 C 46.333 62.632,43.374 65.792,41.917 66.992 C 40.245 68.369,36.795 70.500,36.239 70.500 C 36.133 70.500,36.283 60.777,36.417 58.917 C 36.456 58.367,36.539 52.012,36.601 44.794 L 36.713 31.672 37.148 31.778 C 37.387 31.836,38.108 32.094,38.750 32.351 M262.581 32.922 C 264.141 33.062,265.585 33.214,265.792 33.258 C 266.196 33.346,266.333 37.094,266.059 40.604 L 265.954 41.959 264.769 42.157 C 264.117 42.266,262.383 42.428,260.917 42.515 C 259.450 42.603,258.115 42.717,257.950 42.768 C 257.671 42.855,257.656 42.746,257.738 41.222 C 257.787 40.321,257.868 38.383,257.918 36.917 C 257.968 35.450,258.054 33.894,258.109 33.458 L 258.210 32.667 258.978 32.667 C 259.400 32.667,261.022 32.781,262.581 32.922 M226.767 34.733 C 227.490 35.456,227.521 36.118,226.866 36.851 C 226.263 37.526,225.216 37.439,224.666 36.666 C 223.455 34.965,225.300 33.266,226.767 34.733 M123.214 43.461 C 123.660 43.888,124.963 45.761,125.837 47.231 C 126.242 47.913,127.096 49.631,128.001 51.583 C 128.298 52.225,128.832 53.367,129.187 54.122 C 129.543 54.876,129.833 55.534,129.833 55.583 C 129.833 55.633,130.142 56.328,130.519 57.128 C 132.344 61.004,133.078 62.468,133.759 63.590 C 134.167 64.261,134.500 64.849,134.500 64.897 C 134.500 65.294,136.884 68.289,137.841 69.093 C 141.457 72.134,146.814 70.484,152.966 64.434 L 155.683 61.763 156.548 61.757 L 157.414 61.750 157.619 63.000 C 158.099 65.931,158.197 67.197,158.123 69.496 C 158.049 71.801,157.665 74.059,157.130 75.333 C 157.034 75.563,156.898 75.900,156.829 76.083 C 155.474 79.648,152.759 83.152,149.598 85.417 C 149.342 85.600,148.822 85.981,148.441 86.263 C 147.243 87.153,145.154 88.307,142.417 89.590 C 140.340 90.564,136.249 91.693,133.061 92.172 C 131.857 92.353,130.501 92.572,130.048 92.658 C 128.665 92.920,120.590 92.876,118.633 92.596 C 117.689 92.461,116.167 92.264,115.250 92.159 C 109.409 91.490,103.339 89.614,98.456 86.970 C 96.613 85.972,93.813 83.617,91.911 81.466 C 90.843 80.258,89.251 77.407,88.663 75.648 C 88.467 75.063,88.238 74.512,88.154 74.425 C 88.069 74.338,87.999 74.075,87.997 73.842 C 87.996 73.608,87.837 72.854,87.645 72.167 C 87.357 71.134,87.282 70.283,87.213 67.267 L 87.129 63.618 87.813 63.727 C 89.416 63.984,91.961 65.341,93.284 66.645 C 96.661 69.972,101.652 71.856,104.682 70.946 L 105.417 70.725 105.444 71.738 C 105.515 74.443,107.622 76.374,110.778 76.628 C 111.781 76.708,111.820 76.729,111.930 77.230 C 111.992 77.516,112.259 78.221,112.522 78.796 C 112.785 79.371,113.000 79.882,113.000 79.931 C 113.000 80.049,113.774 81.780,114.112 82.417 C 115.488 85.014,115.773 85.498,116.790 86.970 C 119.273 90.564,120.344 91.332,122.546 91.104 C 123.955 90.958,125.685 89.640,127.500 87.328 C 127.729 87.036,128.142 86.514,128.417 86.168 C 128.907 85.552,129.058 85.347,129.894 84.167 C 130.377 83.484,132.472 79.772,133.021 78.625 L 133.400 77.833 134.525 77.833 C 135.991 77.833,137.227 77.561,137.593 77.156 C 137.753 76.979,137.976 76.833,138.087 76.833 C 138.434 76.833,139.494 75.310,139.753 74.439 C 140.380 72.326,139.855 71.693,138.732 73.208 C 137.870 74.372,136.664 75.000,135.293 75.000 C 133.790 75.000,129.502 73.657,128.308 72.813 C 128.064 72.641,127.802 72.500,127.724 72.500 C 127.647 72.500,127.365 72.312,127.099 72.083 C 126.833 71.854,126.514 71.667,126.391 71.667 C 125.855 71.667,126.247 71.345,127.208 70.996 C 130.534 69.790,131.463 68.853,130.834 67.336 C 130.656 66.904,129.365 65.667,129.094 65.667 C 129.038 65.667,128.709 65.487,128.362 65.268 C 125.105 63.212,120.756 63.187,116.766 65.201 C 113.724 66.736,114.484 68.838,118.741 70.663 C 119.158 70.842,119.500 71.027,119.500 71.076 C 119.500 71.180,116.898 72.502,116.517 72.591 C 116.370 72.625,115.912 72.778,115.500 72.931 C 112.318 74.108,108.811 74.038,107.427 72.770 C 106.984 72.364,106.167 70.945,106.167 70.582 C 106.167 70.550,106.572 70.293,107.067 70.009 C 110.748 67.903,113.651 62.790,115.496 55.167 C 115.910 53.459,117.491 48.905,117.840 48.417 C 117.906 48.325,118.015 48.063,118.083 47.833 C 118.275 47.190,119.762 44.778,120.522 43.877 C 121.501 42.717,122.306 42.592,123.214 43.461 M108.763 50.704 C 109.393 51.153,110.333 52.371,110.333 52.739 C 110.333 52.872,110.398 53.021,110.478 53.070 C 110.998 53.391,111.211 55.946,110.857 57.602 C 109.056 66.018,100.829 66.624,100.932 58.333 C 100.999 52.919,105.590 48.447,108.763 50.704 M146.584 52.853 C 145.851 53.221,145.133 53.630,144.988 53.761 C 144.843 53.893,144.654 54.000,144.569 54.000 C 144.398 54.000,142.373 55.708,142.042 56.131 C 141.588 56.711,141.779 56.833,143.137 56.833 C 144.545 56.833,145.583 57.096,146.958 57.802 C 148.107 58.391,148.062 58.508,146.792 58.235 C 144.755 57.798,142.029 58.053,140.524 58.821 C 139.174 59.510,138.260 59.096,138.652 57.972 C 139.633 55.156,143.870 52.190,146.917 52.186 L 147.917 52.184 146.584 52.853 M106.717 54.125 C 105.745 54.973,105.465 57.313,106.242 58.091 C 107.676 59.524,109.901 57.033,109.088 54.905 C 108.676 53.826,107.502 53.440,106.717 54.125 M123.833 65.667 C 124.135 65.763,123.950 65.801,123.167 65.805 C 122.571 65.808,121.933 65.745,121.750 65.667 C 121.313 65.479,123.247 65.479,123.833 65.667 M125.766 75.046 C 126.812 75.769,128.287 76.537,129.500 76.992 C 131.041 77.569,131.009 77.474,130.194 79.035 C 127.709 83.793,123.591 88.833,122.188 88.833 C 120.587 88.833,117.700 84.818,115.119 79.000 C 114.096 76.692,114.073 76.167,114.997 76.167 C 115.793 76.167,119.450 74.790,119.833 74.346 C 119.879 74.293,120.160 74.115,120.458 73.949 L 121.000 73.648 121.005 75.366 C 121.010 76.960,121.361 80.820,121.570 81.583 C 121.620 81.767,121.722 82.179,121.795 82.500 C 121.964 83.240,122.765 83.458,122.903 82.802 C 123.254 81.140,123.334 80.263,123.436 76.930 L 123.553 73.149 124.235 73.804 C 124.610 74.165,125.299 74.724,125.766 75.046 " stroke="none" fill="#fc8cbc" fill-rule="evenodd"></path><path id="path1" d="M374.357 2.208 C 374.168 2.506,373.530 3.425,372.938 4.250 C 371.165 6.722,366.469 13.599,366.303 13.967 C 366.274 14.031,365.660 14.983,364.939 16.083 C 364.218 17.183,363.462 18.346,363.259 18.667 C 363.056 18.987,362.671 19.587,362.403 20.000 C 362.136 20.412,361.878 20.825,361.830 20.917 C 361.782 21.008,361.565 21.370,361.347 21.721 L 360.952 22.359 360.152 20.971 C 359.712 20.208,359.239 19.358,359.101 19.083 C 358.963 18.808,358.583 18.133,358.258 17.583 C 357.932 17.033,357.478 16.246,357.248 15.833 C 357.018 15.421,356.737 14.936,356.624 14.756 C 356.162 14.026,355.583 13.055,355.329 12.583 C 355.181 12.308,354.883 11.783,354.667 11.417 C 354.451 11.050,354.058 10.375,353.794 9.917 C 353.530 9.458,353.056 8.671,352.739 8.167 C 352.423 7.662,352.051 7.025,351.912 6.750 C 351.774 6.475,351.418 5.860,351.122 5.383 C 350.098 3.733,349.419 2.582,349.297 2.288 C 349.010 1.596,348.909 1.639,345.000 4.079 C 343.345 5.112,343.064 5.282,342.833 5.386 C 342.696 5.448,342.133 5.798,341.583 6.163 C 341.033 6.528,340.358 6.934,340.083 7.065 C 339.808 7.196,339.396 7.449,339.167 7.627 C 338.938 7.805,338.675 7.980,338.583 8.017 C 338.447 8.071,337.398 8.702,335.833 9.672 C 335.696 9.757,334.833 10.287,333.917 10.849 C 330.667 12.840,330.883 12.462,332.035 14.146 C 335.749 19.579,338.591 23.856,340.936 27.542 C 341.154 27.885,341.537 28.475,341.786 28.852 C 342.034 29.229,342.316 29.675,342.411 29.842 C 342.659 30.281,344.141 32.644,344.606 33.342 C 344.823 33.668,345.000 33.979,345.000 34.034 C 345.000 34.089,345.299 34.609,345.665 35.192 C 346.031 35.774,346.522 36.587,346.757 37.000 C 346.991 37.412,347.433 38.162,347.739 38.667 C 348.044 39.171,348.559 40.076,348.883 40.677 L 349.472 41.771 348.836 43.010 C 348.487 43.692,347.557 45.487,346.770 47.000 C 345.076 50.257,341.906 56.624,340.006 60.586 C 339.260 62.143,338.466 63.792,338.243 64.250 C 337.395 65.995,336.167 68.683,336.167 68.795 C 336.167 68.859,335.985 69.288,335.763 69.748 C 335.542 70.207,335.117 71.146,334.821 71.833 C 334.524 72.521,334.114 73.458,333.908 73.917 C 332.875 76.220,331.704 79.118,331.584 79.665 C 331.488 80.101,331.528 80.167,331.946 80.267 C 332.205 80.329,332.492 80.433,332.583 80.498 C 332.675 80.563,333.650 80.973,334.750 81.408 C 335.850 81.843,337.172 82.379,337.688 82.600 C 338.203 82.820,338.681 83.000,338.750 83.000 C 338.819 83.000,339.297 83.179,339.812 83.398 C 340.328 83.617,341.350 84.038,342.083 84.333 C 342.817 84.629,343.839 85.049,344.354 85.268 C 344.870 85.487,345.362 85.667,345.448 85.667 C 345.534 85.667,345.993 85.854,346.468 86.083 C 346.943 86.313,347.411 86.500,347.507 86.500 C 347.604 86.500,347.918 86.621,348.205 86.770 C 348.740 87.046,350.827 87.833,351.026 87.833 C 351.087 87.833,351.341 87.290,351.590 86.625 C 353.244 82.207,353.817 80.699,354.266 79.583 C 354.487 79.033,354.667 78.518,354.667 78.438 C 354.667 78.357,354.844 77.870,355.061 77.354 C 355.278 76.839,355.698 75.817,355.995 75.083 C 356.291 74.350,356.714 73.328,356.933 72.812 C 357.153 72.297,357.333 71.830,357.333 71.776 C 357.333 71.721,357.521 71.267,357.750 70.766 C 357.979 70.265,358.167 69.806,358.167 69.746 C 358.167 69.686,358.392 69.151,358.667 68.557 C 358.942 67.963,359.167 67.444,359.167 67.403 C 359.167 67.363,359.309 67.012,359.483 66.623 C 359.856 65.792,360.715 63.779,360.976 63.125 C 361.251 62.438,361.336 62.520,362.375 64.460 C 363.328 66.240,364.201 67.854,365.416 70.083 C 366.826 72.668,368.618 76.170,371.004 81.000 C 372.386 83.796,373.579 86.196,373.656 86.333 C 373.844 86.672,374.504 86.577,375.446 86.076 C 375.870 85.851,376.285 85.667,376.369 85.667 C 376.452 85.667,376.910 85.489,377.385 85.273 C 378.383 84.819,380.125 84.064,381.625 83.436 C 382.198 83.196,383.098 82.816,383.625 82.590 C 384.152 82.365,385.146 81.947,385.833 81.662 C 389.960 79.951,389.745 80.163,389.013 78.513 C 387.759 75.687,382.763 64.685,382.499 64.167 C 382.335 63.846,381.938 63.021,381.617 62.333 C 381.296 61.646,380.682 60.333,380.253 59.417 C 379.227 57.226,373.394 45.520,372.331 43.519 C 371.310 41.596,371.300 41.839,372.481 39.697 C 373.021 38.718,373.688 37.504,373.964 37.000 C 375.082 34.952,379.205 27.702,380.455 25.583 C 380.780 25.033,381.130 24.433,381.234 24.250 C 381.338 24.067,381.541 23.729,381.686 23.500 C 382.215 22.665,383.921 19.917,384.083 19.639 C 384.394 19.106,385.803 16.927,387.567 14.251 C 388.935 12.177,389.279 11.543,389.121 11.393 C 389.008 11.286,388.279 10.767,387.500 10.237 C 386.721 9.708,385.757 9.045,385.357 8.763 C 384.958 8.481,384.460 8.137,384.251 8.000 C 383.324 7.390,379.159 4.521,378.583 4.096 C 375.296 1.671,374.829 1.462,374.357 2.208 M302.833 3.212 C 294.813 3.297,288.223 3.393,288.189 3.425 C 288.156 3.457,288.065 5.418,287.989 7.783 C 287.912 10.148,287.771 13.808,287.675 15.917 C 287.578 18.025,287.425 22.075,287.333 24.917 C 287.124 31.424,287.120 58.834,287.328 63.833 C 287.715 73.144,288.274 81.988,288.604 84.015 L 288.702 84.613 294.461 84.723 C 297.629 84.784,305.946 84.833,312.944 84.833 L 325.667 84.833 325.667 84.477 C 325.667 84.080,325.512 82.690,324.909 77.667 C 324.683 75.787,324.416 73.481,324.314 72.542 L 324.129 70.833 323.060 70.833 C 322.471 70.833,319.499 71.015,316.453 71.237 C 313.408 71.459,309.717 71.687,308.250 71.745 C 306.783 71.802,305.415 71.891,305.208 71.943 L 304.833 72.036 304.833 62.435 L 304.833 52.833 313.143 52.833 L 321.452 52.833 321.568 51.152 C 321.632 50.227,321.753 47.508,321.837 45.110 C 321.922 42.712,322.043 39.745,322.106 38.516 L 322.221 36.282 321.485 36.384 C 320.225 36.559,313.912 37.140,310.250 37.419 C 308.325 37.566,306.516 37.725,306.231 37.774 L 305.712 37.862 305.779 36.223 C 305.838 34.792,306.000 33.040,306.834 24.750 C 306.927 23.833,307.125 22.158,307.276 21.028 L 307.549 18.972 308.066 19.063 C 308.351 19.113,309.858 19.236,311.417 19.337 C 312.975 19.437,315.825 19.660,317.750 19.833 C 324.471 20.437,324.137 20.429,324.242 19.977 C 324.292 19.761,324.408 17.746,324.500 15.500 C 324.592 13.254,324.779 9.954,324.916 8.167 C 325.052 6.379,325.165 4.485,325.165 3.958 L 325.167 3.000 321.292 3.029 C 319.160 3.045,310.854 3.128,302.833 3.212 M315.917 5.833 C 317.288 6.104,317.869 7.175,317.310 8.401 C 317.015 9.048,316.574 9.099,311.436 9.081 L 306.622 9.064 306.219 8.597 C 305.203 7.415,305.940 5.937,307.685 5.660 C 308.798 5.483,314.784 5.609,315.917 5.833 M321.414 6.332 C 322.414 6.712,322.522 8.542,321.571 8.975 C 320.286 9.561,319.167 9.000,319.167 7.772 C 319.167 6.427,320.097 5.831,321.414 6.332 M376.998 6.582 C 378.279 7.245,378.313 8.251,377.119 10.180 C 376.916 10.508,376.503 11.183,376.201 11.680 C 375.899 12.177,375.355 13.060,374.993 13.642 C 374.630 14.224,374.333 14.726,374.333 14.758 C 374.333 14.790,374.127 15.139,373.875 15.533 C 373.284 16.458,373.113 16.741,372.535 17.750 C 372.273 18.208,371.844 18.958,371.581 19.417 C 370.717 20.924,370.167 21.909,369.890 22.445 C 369.310 23.568,367.556 23.403,366.916 22.165 C 366.556 21.470,366.607 20.919,367.111 20.032 C 367.561 19.240,367.959 18.527,368.713 17.167 C 369.189 16.306,370.948 13.199,371.449 12.333 C 371.635 12.012,372.217 11.037,372.744 10.167 C 373.271 9.296,373.825 8.368,373.976 8.104 C 374.906 6.478,375.864 5.996,376.998 6.582 M366.742 25.224 C 367.302 25.958,367.278 26.352,366.635 26.980 C 365.786 27.810,364.836 27.666,364.182 26.607 C 363.229 25.067,365.632 23.769,366.742 25.224 M121.875 88.782 C 122.035 88.823,122.298 88.823,122.458 88.782 C 122.619 88.740,122.487 88.705,122.167 88.705 C 121.846 88.705,121.715 88.740,121.875 88.782 M173.567 95.417 C 173.559 95.829,173.603 96.167,173.665 96.167 C 173.728 96.167,173.792 95.829,173.808 95.417 C 173.823 95.004,173.779 94.667,173.710 94.667 C 173.640 94.667,173.576 95.004,173.567 95.417 " stroke="none" fill="#e4a404" fill-rule="evenodd"></path><path id="path2" d="M122.455 65.787 C 122.750 65.824,123.275 65.824,123.621 65.788 C 123.967 65.752,123.725 65.722,123.083 65.721 C 122.442 65.721,122.159 65.750,122.455 65.787 M120.127 92.785 C 120.334 92.824,120.634 92.823,120.794 92.781 C 120.953 92.739,120.783 92.707,120.417 92.709 C 120.050 92.711,119.920 92.745,120.127 92.785 " stroke="none" fill="#f098c0" fill-rule="evenodd"></path><path id="path3" d="M122.455 65.787 C 122.750 65.824,123.275 65.824,123.621 65.788 C 123.967 65.752,123.725 65.722,123.083 65.721 C 122.442 65.721,122.159 65.750,122.455 65.787 M120.127 92.785 C 120.334 92.824,120.634 92.823,120.794 92.781 C 120.953 92.739,120.783 92.707,120.417 92.709 C 120.050 92.711,119.920 92.745,120.127 92.785 " stroke="none" fill="#f098c0" fill-rule="evenodd"></path><path id="path4" d="M122.455 65.787 C 122.750 65.824,123.275 65.824,123.621 65.788 C 123.967 65.752,123.725 65.722,123.083 65.721 C 122.442 65.721,122.159 65.750,122.455 65.787 M120.127 92.785 C 120.334 92.824,120.634 92.823,120.794 92.781 C 120.953 92.739,120.783 92.707,120.417 92.709 C 120.050 92.711,119.920 92.745,120.127 92.785 " stroke="none" fill="#f098c0" fill-rule="evenodd"></path></g></svg>